<?xml version="1.0" encoding="UTF-8"?>
<svg xmlns="http://www.w3.org/2000/svg" xmlns:xlink="http://www.w3.org/1999/xlink" version="1.1" viewBox="0 0 1080 1080">
  <!-- Generator: Adobe Illustrator 29.1.0, SVG Export Plug-In . SVG Version: 2.1.0 Build 142)  -->
  <defs>
    <style>
      .st0 {
        isolation: isolate;
      }

      .st1 {
        fill: #85a5ff;
      }

      .st2 {
        fill: #fff;
      }

      .st3 {
        mix-blend-mode: darken;
      }
    </style>
  </defs>
  <g class="st0">
    <g id="TB_x5F_logo_x5F_inverted">
      <path class="st1" d="M941.3,742.7c-1.4-35.1-24.9-61.1-68-75.2-7.4-2.4-14.7-4.3-21.6-5.7,10.4-3.4,21.2-8.9,30.7-17.7,18.1-16.8,26.8-41.6,25.9-73.7-.7-25.8-10-46.8-27.6-62.3-30.4-26.8-77.7-30.8-103.1-30.8s-.4,0-.7,0c27.8-22.5,46.9-53.1,52.2-84.3,5.4-32-3.6-64.2-26-93.1-40.7-52.6-107.5-44.3-144.9-34.1-5.9-5.5-12.8-9.9-20.2-12.9-1.6-.7-3.3-1.3-4.9-1.8-.6-.2-1.3-.4-1.9-.6.7,1.1,1.3,2.3,1.9,3.5,5.9,11.7,7.1,25,3.3,37.6-4.1,13.3-13.1,24.1-25.5,30.4-7.3,3.7-15.1,5.4-22.8,5.4-18.5,0-36.3-10.1-45.2-27.7-1.6-3.1-2.8-6.3-3.7-9.6-.9-3.3-1.4-6.6-1.7-10,0-.7,0-1.4,0-2.1l-10.4,5.3h0l-.4.2c3,2.3,5.7,4.9,8.1,7.9,2.3,2.8,4.4,5.9,6.1,9.3,5.9,11.7,7.1,25,3.3,37.6-4.1,13.3-13.1,24.1-25.5,30.4-7.3,3.7-15.1,5.4-22.8,5.4-18.5,0-36.3-10.1-45.2-27.7-1.5-3-2.8-6.2-3.6-9.4-1,1.7-1.8,3.5-2.6,5.3-7.6,17.6-7.7,38.3,1.6,56.7l11.6,22.9c.2.3.3.6.5.9,8.2,15.5,21.9,27,38.7,32.4,5.4,1.7,11,2.8,16.5,3.1,1.3,0,2.5.1,3.8.1,6.3,0,12.6-.9,18.7-2.7h0c3.8-1.1,7.6-2.6,11.3-4.5l22.9-11.6,58.3-29.5,6-3.1,2.7-1.6,10-6,9.2-5.5c.2-.1.3-.2.5-.3h.1c.2-.2.4-.3.6-.5.6-.4,1.3-.8,1.9-1.2.3-.2.6-.4.8-.6.6-.4,1.2-.8,1.8-1.2.3-.2.6-.5.9-.7.5-.4,1.1-.8,1.6-1.2.3-.2.6-.5.9-.8.5-.4,1-.8,1.5-1.2.3-.3.6-.6,1-.9.5-.4.9-.8,1.4-1.2.3-.3.7-.6,1-1,.4-.4.8-.8,1.2-1.2.3-.3.7-.7,1-1,.4-.4.8-.8,1.1-1.2.3-.4.6-.7,1-1.1.3-.4.7-.8,1-1.2.3-.4.6-.8.9-1.2.3-.4.6-.8,1-1.2.3-.4.6-.8.9-1.2.3-.4.6-.8.9-1.2.3-.4.5-.8.8-1.2.3-.4.6-.8.8-1.2.3-.4.5-.9.8-1.3.3-.4.5-.9.8-1.3.2-.4.5-.9.7-1.3.2-.4.5-.9.7-1.3.2-.4.4-.9.6-1.3.2-.4.4-.9.6-1.3.2-.5.4-1,.6-1.4.2-.4.4-.8.5-1.2.4-.9.7-1.8,1-2.7,5.2-15,4.1-30.8-3.1-45.5-.2-.3-.3-.6-.4-.9l-12.6-24.9,1.3-.7,7.6-3.9,12.6,24.9c.2.4.4.8.6,1.1,15.8,32.5,5.2,69.1-25.8,91.4v18.7l66.4-54.2,6.3,7.7-72.7,59.4v149.6h116.9v10h-116.9v145.7l166.9-.2v10s-170.6.2-170.6.2l-179.5,103.8h344.6c39.8,0,69.5-10,88.4-29.7,17.2-17.9,25.2-43.8,23.9-76.8Z"/>
      <g class="st3">
        <image width="555" height="674" transform="translate(427.7 216.5)" xlink:href="TeachBooks_logo_inverted-1.png"/>
      </g>
      <g>
        <polygon class="st2" points="602 627.8 489.8 700.1 484.4 691.7 596.6 619.4 602 627.8"/>
        <polygon class="st2" points="602 577.8 489.8 650.1 484.4 641.7 596.6 569.4 602 577.8"/>
        <polygon class="st2" points="602 527.8 489.8 600.1 484.4 591.7 596.6 519.4 602 527.8"/>
      </g>
      <path class="st1" d="M408.7,848.3c-15.4,0-39.2.1-53.7.2-14.7.1-28.7.2-42,.2-78.6,0-130.6-2.7-145.5-17.7-24.1-24.1-11.8-71.2,6-104.2,10.6-19.7,32.5-43,53.5-59.4,0,0,0,0,0,0v9.5l7.8-6h0c.7-.5,1.4-1,2.1-1.5,8.3-5.8,15.1-9.4,20.4-11.6,8.1-3.2,12.9-3,14.4-1.7,1.9,1.6,3.3,6.1-.6,18.8-3,9.6-8.2,21-13.8,33.1-.6,1.2-1.2,2.5-1.7,3.7-1.8,3.8-3.5,7.6-5.2,11.3-.5,1-.9,2.1-1.4,3.1-.8,1.8-1.6,3.6-2.3,5.3-.4.8-.7,1.7-1.1,2.5,0,.2-.2.5-.3.7-.4,1-.8,1.9-1.2,2.8-.5,1.2-.9,2.3-1.4,3.5-1.3,3.3-2.5,6.5-3.5,9.6-2.7,8.2-4.2,15.6-3.7,21.6,0,.8.2,1.6.3,2.4,0,.3.1.7.2,1,0,.1,0,.2,0,.3,0,.3.2.6.3,1l7.8-2.3c-.4-1.3-.6-2.9-.6-4.6s0-.8,0-1.2c0-.9.1-1.9.3-2.9,0-.3,0-.6.1-.9.1-.9.3-1.8.5-2.7,0-.3.1-.6.2-.8.2-1.1.5-2.1.8-3.2,0-.4.2-.7.3-1.1.2-.7.4-1.5.7-2.2l162,93.7Z"/>
      <g class="st3">
        <image width="338" height="277" transform="translate(112.7 613.5)" xlink:href="TeachBooks_logo_inverted-2.png"/>
      </g>
      <circle cx="853.2" cy="548.2" r="6.3"/>
      <ellipse cx="874.8" cy="783.9" rx="16.3" ry="10.6" transform="translate(-241.5 1149.5) rotate(-60)"/>
      <ellipse cx="633.6" cy="818.5" rx="18" ry="9.8"/>
      <circle cx="692.2" cy="810.6" r="7.9"/>
      <ellipse cx="208.5" cy="767.6" rx="8.3" ry="15.4" transform="translate(-312.7 166.7) rotate(-25.7)"/>
      <circle cx="196.6" cy="804.2" r="5.2"/>
      <polygon class="st2" points="602 527.8 489.8 600.1 484.4 591.7 596.6 519.4 602 527.8"/>
      <polygon class="st2" points="602 577.8 489.8 650.1 484.4 641.7 596.6 569.4 602 577.8"/>
      <polygon class="st2" points="602 627.8 489.8 700.1 484.4 691.7 596.6 619.4 602 627.8"/>
      <path class="st2" d="M657.5,404.8v332.7l-205.2,118.6h-10l-28.3-16.3-163.9-94.8c2.1-5.3,4.5-10.9,7-16.5.4-.8.7-1.6,1.1-2.4l184.1,111.4,1.1.7-1.1-328.8-184.8-119v258.6c0,0-.2,0-.2,0,0,0,0,0-.1,0-.3.1-.7.3-1,.4-.4.2-.8.3-1.3.5-.4.2-.9.4-1.4.6-.9.4-1.9.9-2.8,1.3-.4.2-.9.4-1.4.7,0,0-.1,0-.2,0-.4.2-.8.4-1.2.7-3.5,1.9-7.1,4.1-10.9,6.7v-255.5l10.4,6v-38.6l199.8,128.7,66-42.5c1.3,0,2.5.1,3.8.1,6.3,0,12.6-.9,18.7-2.7l-83.5,53.8v328.8l184.8-112.4v-308.8l20.4-12.2Z"/>
      <g>
        <path class="st2" d="M169.5,904.8h-28.1v-9.4h65.6v9.4h-28.1v70.2h-9.4v-70.2Z"/>
        <path class="st2" d="M219.5,895.4h56.2v9.4h-46.8v23.4h42.1v9.4h-42.1v28.1h46.8v9.4h-56.2v-79.6Z"/>
        <path class="st2" d="M292.5,914.1h9.4v28.1h37.5v-28.1h9.4v60.9h-9.4v-23.4h-37.5v23.4h-9.4v-60.9ZM301.9,904.8h9.4v9.4h-9.4v-9.4ZM330,895.4v9.4h-18.7v-9.4h18.7ZM339.3,904.8v9.4h-9.4v-9.4h9.4Z"/>
        <path class="st2" d="M365.1,914.1h9.4v42.1h-9.4v-42.1ZM374.4,904.8h9.4v9.4h-9.4v-9.4ZM374.4,956.3h9.4v9.4h-9.4v-9.4ZM383.8,895.4h32.8v9.4h-32.8v-9.4ZM383.8,965.6h32.8v9.4h-32.8v-9.4ZM416.6,904.8h9.4v9.4h-9.4v-9.4ZM416.6,956.3h9.4v9.4h-9.4v-9.4ZM426,914.1h9.4v9.4h-9.4v-9.4ZM426,946.9h9.4v9.4h-9.4v-9.4Z"/>
        <path class="st2" d="M451.9,895.4h9.4v32.8h42.1v-32.8h9.4v79.6h-9.4v-37.5h-42.1v37.5h-9.4v-79.6Z"/>
        <path class="st2" d="M533.2,895.4h51.5v9.4h-42.1v23.4h42.1v9.4h-42.1v28.1h42.1v9.4h-51.5v-79.6ZM584.7,904.8h9.4v23.4h-9.4v-23.4ZM584.7,937.5h9.4v28.1h-9.4v-28.1Z"/>
        <path class="st2" d="M619.8,956.3h-9.4v-42.1h9.4v42.1ZM629.2,914.1h-9.4v-9.4h9.4v9.4ZM619.8,956.3h9.4v9.4h-9.4v-9.4ZM629.2,895.4h37.5v9.4h-37.5v-9.4ZM629.2,965.6h37.5v9.4h-37.5v-9.4ZM676,904.8v9.4h-9.4v-9.4h9.4ZM666.6,956.3h9.4v9.4h-9.4v-9.4ZM685.4,914.1v42.1h-9.4v-42.1h9.4Z"/>
        <path class="st2" d="M711.1,956.3h-9.4v-42.1h9.4v42.1ZM720.5,914.1h-9.4v-9.4h9.4v9.4ZM711.1,956.3h9.4v9.4h-9.4v-9.4ZM720.5,895.4h37.5v9.4h-37.5v-9.4ZM720.5,965.6h37.5v9.4h-37.5v-9.4ZM767.3,904.8v9.4h-9.4v-9.4h9.4ZM757.9,956.3h9.4v9.4h-9.4v-9.4ZM776.7,914.1v42.1h-9.4v-42.1h9.4Z"/>
        <path class="st2" d="M795,895.4h9.4v32.8h23.4v9.4h-23.4v37.5h-9.4v-79.6ZM837.2,918.8v9.4h-9.4v-9.4h9.4ZM837.2,937.5v14h-9.4v-14h9.4ZM846.5,918.8h-9.4v-14h9.4v14ZM846.5,951.6v14h-9.4v-14h9.4ZM855.9,895.4v9.4h-9.4v-9.4h9.4ZM846.5,965.6h9.4v9.4h-9.4v-9.4Z"/>
        <path class="st2" d="M880.1,923.5h-9.4v-18.7h9.4v18.7ZM870.8,951.6h9.4v14h-9.4v-14ZM880.1,895.4h37.5v9.4h-37.5v-9.4ZM880.1,923.5h18.7v9.4h-18.7v-9.4ZM917.6,975h-37.5v-9.4h37.5v9.4ZM898.9,932.9h18.7v9.4h-18.7v-9.4ZM917.6,904.8h9.4v14h-9.4v-14ZM927,942.2v23.4h-9.4v-23.4h9.4Z"/>
      </g>
      <polygon class="st2" points="367.7 617.6 367.7 640.5 379 640.5 379 663.1 390.3 663.1 390.3 685.8 367.7 685.8 367.7 663.7 356.3 663.7 356.3 641 345 641 345 629.6 333.6 629.6 333.6 641 322.1 641 322.1 652.5 306.4 652.5 306.4 526.2 317.8 526.2 317.8 537.6 329.3 537.6 329.3 549.1 340.7 549.1 340.7 560.5 352.1 560.5 352.1 571.9 363.6 571.9 363.6 583.3 375 583.3 375 594.8 386.3 594.8 386.3 606.2 397.7 606.2 397.7 617.6 367.7 617.6"/>
      <image width="231" height="160" transform="translate(415.7 172.5)" xlink:href="TeachBooks_logo_inverted-3.png"/>
      <image width="75" height="74" transform="translate(513.7 234.5)" xlink:href="TeachBooks_logo_inverted-4.png"/>
      <image width="450" height="262" transform="translate(286.7 114.5)" xlink:href="TeachBooks_logo_inverted-5.png"/>
      <path class="st2" d="M767.5,252.8c-2,2.5-4.9,3.8-8.2,3.8s-.7,0-1,0c-7.4-.6-15.4-5.1-23.9-13.4-4.4-4.2-7.7-8.3-9.3-10.4h0c-14.5,0-29.4-6.3-42-17.9-2.8-2.6-5.5-5.3-8.2-8.4l6.4-8c2.8,3.4,5.6,6.4,8.5,9.1,10.8,9.9,23.4,15.3,35.3,15.3h.5v.8c.1-.1.3-.3.4-.4l-.3-.5c1-.6,2-1.2,2.9-1.9.3-.2.6-.4.9-.7,12.7-9.9,17.2-27.8,17.2-28l9.7,2.4c-.1.5-1.7,7-5.8,14.8,3.7-1.5,6.9-2.6,8.8-3.2l4.9-1.7,1.5,4.9c2.3,7.8,9.4,33.9,1.7,43.3Z"/>
      <path class="st2" d="M610.6,231.6c-2.2-1.1-4.5-2-6.9-2.8-12.8-4.2-26.5-3.2-38.6,2.9-12.3,6.2-21.4,16.9-25.4,30.1-1.7,5.3-2.4,10.8-2.3,16.2l-10.4,5.3h-.4c-4.5-3.3-9.6-6-15.1-7.8-12.8-4.2-26.5-3.2-38.6,2.9-8.1,4.1-14.9,10.2-19.6,17.7l-1.3-14.1c-1.2-13.7,3.5-27.2,13-36.9,13.5-13.8,32.2-23.6,55.3-29.3,18.2-4.5,35-6.8,50-6.9.1,0,.2,0,.3,0,.7,0,1.4,0,2.1,0,.5,0,1,0,1.4,0,.1,0,.2,0,.3,0,.4,0,.8,0,1.2.1.3,0,.7,0,1,.1,0,0,.2,0,.3,0,.4,0,.8.1,1.2.2,0,0,0,0,0,0,.5,0,1,.2,1.5.3.5,0,1,.2,1.4.3.3,0,.6.1.9.2.3,0,.6.2.9.2.2,0,.4.1.6.2.3,0,.7.2,1,.3.2,0,.4.1.5.2.4.1.9.3,1.3.4,0,0,.2,0,.2,0,.5.2,1.1.4,1.6.6.7.3,1.4.6,2.1.9.3.1.6.3.9.5.2,0,.4.2.6.3.3.2.6.3.9.5.2.1.4.2.7.4,1.5.9,3,1.8,4.5,2.9.4.3.7.5,1.1.8,0,0,.2.1.2.2.3.2.6.5.9.7.2.2.4.3.6.5.4.3.7.6,1.1.9,0,0,0,0,0,0,.4.4.8.8,1.3,1.2.3.3.7.7,1,1.1.2.2.5.5.7.7.2.2.4.5.6.7.1.1.2.2.3.3.2.3.5.6.7.9.2.2.3.4.5.6,1.3,1.6,2.5,3.3,3.6,5.1Z"/>
      <circle cx="556.7" cy="353.8" r="6.9"/>
      <circle cx="573.2" cy="345.5" r="6.9"/>
      <path d="M628.6,317.7c-1.2,8.8-6.5,16.4-14.4,20.3l-90.6,45.9c-7.9,4-17.2,3.8-24.9-.4l-4.8,8.8c5.5,3,11.6,4.5,17.7,4.5s11.4-1.3,16.6-4l5.5-2.8,11.6,22.8-5.2,12.9,9.3,3.7,4.1-10.3,10.9,4.5,3.8-9.2-13.9-5.7-11.7-23.2,76.2-38.6c10.8-5.5,18.2-15.9,19.8-28l-9.9-1.3Z"/>
      <path class="st2" d="M534.6,335.4c-2.7,8.8-8.1,16.2-15.5,21.4,0-.5,0-1,0-1.5,0-23-18.7-41.7-41.7-41.7s-15.7,2.3-22.1,6.3c.1-1.5.4-3,.7-4.5.3-1.3.6-2.6,1-3.9.9-2.8,2-5.4,3.4-7.9,3.9-6.9,9.7-12.6,17-16.3,5.8-2.9,12-4.4,18.3-4.4s8.5.7,12.7,2c1.9.6,3.8,1.4,5.6,2.3,3.8,1.9,7.2,4.4,10.2,7.3,3.1,3,5.7,6.6,7.7,10.6,4.8,9.4,5.7,20.1,2.6,30.1Z"/>
      <path class="st2" d="M626.8,288.7c-2.6,8.6-7.9,16-15.1,21.1,0-.5,0-1,0-1.5,0-14.4-7.3-27.2-18.5-34.7h0c-4.3-2.9-9.1-5-14.3-6.1-2.9-.6-5.8-.9-8.9-.9-8.3,0-16,2.4-22.5,6.6.3-2.8.8-5.6,1.6-8.3,3.3-10.6,10.5-19.2,20.4-24.2,5.8-2.9,12-4.4,18.3-4.4s8.5.7,12.7,2c6.6,2.2,12.4,5.9,17.1,10.9h0c2.6,2.8,4.8,5.9,6.5,9.3.8,1.6,1.5,3.3,2.1,5,2.8,8.1,3,16.8.5,25.1Z"/>
      <path d="M550,271.8l2.5-1.3c-.8.4-1.7.8-2.5,1.3Z"/>
      <path d="M472.8,141l-172.2,210.2,143.8-8.8c.8-1.8,1.7-3.6,2.6-5.3.9,3.2,2.1,6.4,3.6,9.4,8.9,17.6,26.7,27.7,45.2,27.7s15.5-1.8,22.8-5.4c12.4-6.3,21.5-17.1,25.5-30.4,3.8-12.6,2.6-25.9-3.3-37.6-1.7-3.4-3.7-6.5-6.1-9.3-2.4-2.9-5.1-5.6-8.1-7.9,0,0,0,0,0,0-4.5-3.4-9.6-6.1-15.1-7.9-12.8-4.2-26.5-3.2-38.6,2.9-8.1,4.1-14.9,10.2-19.6,17.7l-1.3-14.1c-1.2-13.7,3.5-27.2,13-36.9,13.5-13.8,32.2-23.6,55.3-29.3,18.2-4.5,35-6.8,50-6.9.1,0,.2,0,.3,0,.7,0,1.4,0,2.1,0,.5,0,1,0,1.4,0,.1,0,.2,0,.3,0,.4,0,.8,0,1.2.1.3,0,.7,0,1,.1,0,0,.2,0,.3,0,.4,0,.8.1,1.2.2,0,0,0,0,0,0,.5,0,1,.2,1.5.3.5,0,1,.2,1.4.3.3,0,.6.1.9.2.3,0,.6.2.9.2.2,0,.4.1.6.2.3,0,.7.2,1,.3.2,0,.4.1.5.2.4.1.9.3,1.3.4,0,0,.2,0,.2,0,.5.2,1.1.4,1.6.6.7.3,1.4.6,2.1.9.3.1.6.3.9.5.2,0,.4.2.6.3.3.2.6.3.9.5.2.1.4.2.7.4,1.5.9,3,1.8,4.5,2.9.4.3.7.5,1.1.8,0,0,.2.1.2.2.3.2.6.5.9.7.2.2.4.3.6.5.4.3.7.6,1.1.9,0,0,0,0,0,0,.4.4.8.8,1.3,1.2.3.3.7.7,1,1.1.2.2.5.5.7.7.2.2.4.5.6.7.1.1.2.2.3.3.2.3.5.6.7.9.2.2.3.4.5.6,1.3,1.6,2.5,3.3,3.6,5.1-2.2-1.1-4.5-2-6.9-2.8-12.8-4.2-26.5-3.2-38.6,2.9-12.3,6.2-21.4,16.9-25.4,30.1-1.7,5.3-2.4,10.8-2.3,16.2,0,.7,0,1.4,0,2.1.2,3.4.8,6.7,1.7,10,.9,3.3,2.1,6.5,3.7,9.6,8.9,17.6,26.7,27.7,45.2,27.7s15.5-1.8,22.8-5.4c12.4-6.3,21.5-17.1,25.5-30.4,3.8-12.5,2.6-25.9-3.3-37.6-.6-1.2-1.2-2.3-1.9-3.5.5.2,1.1.3,1.6.5,0,0,.2,0,.2,0,1.7.5,3.3,1.1,4.9,1.8l36.8-46.4,6.4-8,38.6-48.7-247-8.9ZM456.1,315.5c.3-1.3.6-2.6,1-3.9.9-2.8,2-5.4,3.4-7.9,3.9-6.9,9.7-12.6,17-16.3,5.8-2.9,12-4.4,18.3-4.4s8.5.7,12.7,2c1.9.6,3.8,1.4,5.6,2.3.9.4,1.7.9,2.5,1.4,2.8,1.7,5.4,3.7,7.8,6,3.1,3,5.7,6.6,7.7,10.6,4.8,9.4,5.7,20.1,2.6,30.1-2.7,8.8-8.1,16.2-15.5,21.4,0-.5,0-1,0-1.5,0-23-18.7-41.7-41.7-41.7s-7.7.5-11.3,1.6c-3.8,1.1-7.4,2.7-10.8,4.8.1-1.5.4-3,.7-4.5ZM626.8,288.7c-2.6,8.6-7.9,16-15.1,21.1,0-.5,0-1,0-1.5,0-14.4-7.3-27.2-18.5-34.7h0c-4.3-2.9-9.1-5-14.3-6.1-2.9-.6-5.8-.9-8.9-.9s-1.2,0-1.8,0c-.4,0-.7,0-1.1,0-.6,0-1.2,0-1.7.2-.5,0-1,.1-1.5.2-.5,0-1,.1-1.5.2-.9.2-1.7.3-2.6.6-.2,0-.4,0-.6.1-.4.1-.8.2-1.2.3-.5.1-.9.3-1.4.4-.5.2-.9.3-1.4.5-.5.2-.9.3-1.4.5-.4.2-.9.4-1.3.6,0,0,0,0-.1,0,0,0,0,0,0,0l-2.5,1.3h0c-.8.4-1.6.9-2.4,1.4,0,0,0-.1,0-.2,0-.3,0-.5,0-.8,0-.3,0-.7.1-1,0-.2,0-.4,0-.6s0-.4,0-.6c.2-1,.4-2,.6-3,.2-.7.4-1.3.6-2,3.3-10.6,10.5-19.2,20.4-24.2,5.8-2.9,12-4.4,18.3-4.4s8.5.7,12.7,2c.4.1.8.3,1.2.4.4.1.8.3,1.2.5.4.2.8.3,1.2.5.8.4,1.6.7,2.4,1.2.3.2.6.3.9.5.3.1.5.3.8.4.3.2.6.3.9.5.3.2.7.4,1,.6.4.3.8.6,1.2.8.2.1.5.3.7.5.5.4,1.1.8,1.6,1.2.4.3.8.6,1.1,1,.2.2.5.4.7.6.3.3.7.6,1,1,.2.1.3.3.5.5.2.2.4.5.7.7h0c2.6,2.8,4.8,5.9,6.5,9.3.8,1.6,1.5,3.3,2.1,5,2.8,8.1,3,16.8.5,25.1ZM629.4,247.8s0,0,0,0c-.9-1.3-1.8-2.5-2.8-3.7h0s-2.3-6.7-2.3-6.7c-7.9-23.1-29.4-38.5-53.6-38.5s-.2,0-.4,0c-15.7.1-33.3,2.5-52.3,7.2-25,6.1-45.2,16.9-60.1,32-11.6,11.8-17.4,28.1-15.9,44.8l2.7,29.7c0,1,.5,2,1.2,2.8-.9,5.6-.9,11.3,0,16.8,0,0,0,0,0,0l-123.1,7.6,154.5-188.7,222.3,8-70.3,88.6Z"/>
      <path class="st2" d="M626.8,288.7c-2.6,8.6-7.9,16-15.1,21.1,0-.5,0-1,0-1.5,0-14.4-7.3-27.2-18.5-34.7h0c-4.3-2.9-9.1-5-14.3-6.1-2.9-.6-5.8-.9-8.9-.9-6.2,0-12.1,1.4-17.4,3.8,0,0,0,0-.1,0,0,0,0,0,0,0-.8.4-1.7.8-2.5,1.3h0l-2.3,1.2c.3-2.7.8-5.4,1.6-8.1,3.3-10.6,10.5-19.2,20.4-24.2,5.8-2.9,12-4.4,18.3-4.4s8.5.7,12.7,2c6.1,2,11.5,5.3,15.9,9.7.4.4.8.8,1.1,1.1h0c2.6,2.8,4.8,5.9,6.5,9.3.8,1.6,1.5,3.3,2.1,5,2.8,8.1,3,16.8.5,25.1Z"/>
      <path class="st2" d="M534.6,335.4c-2.7,8.8-8.1,16.2-15.5,21.4,0-.5,0-1,0-1.5,0-23-18.7-41.7-41.7-41.7s-7.7.5-11.3,1.6c-3.8,1.1-7.4,2.7-10.8,4.8.1-1.5.4-3,.7-4.5.3-1.3.6-2.6,1-3.9.9-2.8,2-5.4,3.4-7.9,3.9-6.9,9.7-12.6,17-16.3,5.8-2.9,12-4.4,18.3-4.4s8.5.7,12.7,2c1.9.6,3.8,1.4,5.6,2.3.9.4,1.7.9,2.5,1.4,2.8,1.7,5.4,3.7,7.8,6,3.1,3,5.7,6.6,7.7,10.6,4.8,9.4,5.7,20.1,2.6,30.1Z"/>
      <path d="M245.8,663.7c-.9.5-1.8,1.1-2.7,1.7.9-.6,1.8-1.1,2.7-1.7Z"/>
      <path d="M834.4,735.2l-166.9.2v-145.7h116.9v-10h-116.9v-149.6l72.7-59.4-6.3-7.7-66.4,54.2v-18.7c30.9-22.3,41.6-58.9,25.8-91.4-.2-.4-.4-.8-.6-1.1l-12.6-24.9-7.6,3.9-1.3.7,12.6,24.9c.1.3.3.6.4.9,7.2,14.8,8.3,30.5,3.1,45.5-5,14.5-15.8,27.5-30.5,36.7l-28.5,16.5-58.3,29.5-22.9,11.6c-3.7,1.9-7.4,3.4-11.3,4.5h0l-83.5,53.8v328.8l21.5-13.1,163.3-99.3v-308.8l20.4-12.2v332.7l-187.9,108.7-17.3,10h-10l-28.3-16.3-163.9-94.8c2.1-5.3,4.5-10.9,7-16.5.4-.8.7-1.6,1.1-2.4l184.1,111.4,1.1.7-1.1-328.8-184.8-119v258.6c0,0-.2,0-.2,0,0,0,0,0-.1,0-.3.1-.7.3-1,.4-.4.2-.8.3-1.3.5-.4.2-.9.4-1.4.6-.9.4-1.9.9-2.8,1.3-.4.2-.9.4-1.4.7,0,0-.1,0-.2,0-.4.2-.8.4-1.2.7-3.5,1.9-7.1,4.1-10.9,6.7v-255.5l10.4,6v-11.6l-20.4-11.8v280.1s0,0,0,0v9.5l7.8-6h0c.7-.5,1.4-1,2.1-1.5,1.5-1.1,3-2.1,4.5-3,.5-.3.9-.6,1.4-.9,0,0,0,0,0,0,.9-.6,1.8-1.1,2.7-1.7.5-.3.9-.6,1.4-.8.4-.2.8-.5,1.2-.7,1.5-.8,2.9-1.6,4.2-2.2.4-.2.7-.3,1.1-.5,1.2-.6,2.4-1.1,3.5-1.5.1,0,.2,0,.4-.1.1,0,.3-.1.4-.2.6-.3,1.3-.5,1.9-.7.3,0,.5-.2.8-.3,1.3-.4,2.5-.7,3.5-1,.2,0,.4,0,.6-.1,3.8-.7,6.2-.4,7.2.5,1.9,1.6,3.3,6.1-.6,18.8-.8,2.6-1.8,5.4-2.9,8.3-.3.7-.6,1.5-.9,2.2-.3.7-.6,1.5-.9,2.2-.3.6-.5,1.3-.8,1.9-1.1,2.5-2.2,5.1-3.4,7.8-.6,1.3-1.2,2.6-1.8,3.9-.4,1-.9,2-1.4,3-.6,1.2-1.2,2.5-1.7,3.8-.6,1.2-1.2,2.5-1.7,3.7-1.8,3.8-3.5,7.6-5.2,11.3-.5,1-.9,2.1-1.4,3.1-.8,1.8-1.6,3.6-2.3,5.3-.4.8-.7,1.7-1.1,2.5,0,.2-.2.5-.3.7-.4,1-.8,1.9-1.2,2.8-.5,1.2-.9,2.3-1.4,3.5-.4,1-.8,1.9-1.1,2.9-.2.7-.5,1.3-.7,2-.3.8-.6,1.6-.8,2.4-.3.8-.5,1.5-.8,2.3-.2.4-.3.9-.4,1.3-.1.4-.3.9-.4,1.3-.3.9-.5,1.8-.8,2.6-.1.4-.2.9-.3,1.3-.1.5-.3,1-.4,1.5-.5,2-.8,3.9-1.1,5.7-.4,2.8-.5,5.4-.3,7.8,0,.8.2,1.6.3,2.4,0,.3.1.6.2.9,0,0,0,0,0,.1,0,.1,0,.2,0,.3,0,0,0,.1,0,.2,0,.2.1.5.2.7l7.8-2.3c-.4-1.3-.6-2.9-.6-4.6h0c0-.2,0-.4,0-.6,0-.2,0-.4,0-.6,0-.5,0-.9.1-1.4h0c0-.5,0-1,.2-1.5,0-.2,0-.5.1-.8,0,0,0,0,0-.1,0-.2,0-.4,0-.5,0-.3,0-.7.2-1,0-.4.1-.8.2-1.2,0-.3.1-.6.2-.8.2-1.1.5-2.1.8-3.2,0-.4.2-.7.3-1.1.2-.7.4-1.5.7-2.2l162,93.7h0l31.3,18.1,2.2,1.2,5,2.6,5-2.6,1.5-.8,30.5-17.7,179.5-103.8,170.6-.2v-10ZM507.8,688.5l-18,11.6-5.4-8.4,27-17.4,85.2-54.9,5.4,8.4-94.2,60.7ZM522.7,628.9l-32.9,21.2-5.4-8.4,41.8-26.9,70.4-45.3,5.4,8.4-79.3,51.1ZM537.6,569.3l-47.8,30.8-5.4-8.4,56.7-36.5,55.5-35.8,5.4,8.4-64.5,41.5ZM306.4,526.2h11.4v11.4h11.4v11.5h11.4v11.4h11.4v11.4h11.4v11.4h11.4v11.4h11.3v11.4h11.4v11.4h-30v22.9h11.3v22.6h11.3v22.7h-22.6v-22.1h-11.3v-22.6h-11.3v-11.4h-11.4v11.4h-11.4v11.4h-15.8v-126.3Z"/>
      <path d="M786.5,383.2c7.2.1,10-13.4,9.4-22.8s-5-19.2-12.2-18.4c-7.2.8-10.2,11.5-9,23.1s4.6,17.9,11.8,18Z"/>
      <circle cx="779.8" cy="406.7" r="7.4"/>
    </g>
  </g>
</svg>