<?xml version="1.0" standalone="no"?>
<!DOCTYPE svg PUBLIC "-//W3C//DTD SVG 20010904//EN"
 "http://www.w3.org/TR/2001/REC-SVG-20010904/DTD/svg10.dtd">
<svg version="1.0" xmlns="http://www.w3.org/2000/svg"
 width="243pt" height="259pt" viewBox="0 0 243 259"
 preserveAspectRatio="xMidYMid meet">
<metadata>
Created by potrace 1.8, written by Peter Selinger 2001-2007
</metadata>
<g transform="translate(0,259) scale(0.120000,-0.120000)"
fill="#000000" stroke="none">
<path d="M945 2151 c-1 -1 -1 -3 -1 -4 -1 -2 -2 -3 -2 -3 -3 0 -4 -3 -2 -10 0
-4 1 -13 2 -21 l1 -15 -5 -14 c-10 -28 -20 -50 -34 -73 -4 -6 -8 -13 -10 -16
-1 -4 -7 -13 -12 -21 -4 -9 -10 -18 -12 -22 -4 -8 -5 -11 -9 -17 -2 -3 -6 -10
-9 -16 -9 -18 -13 -25 -19 -34 -3 -5 -7 -11 -8 -13 -7 -12 -21 -32 -25 -38 -3
-3 -5 -7 -6 -8 -7 -9 -24 -32 -43 -54 -12 -14 -28 -29 -62 -59 -16 -14 -27
-23 -32 -27 -7 -4 -17 -12 -23 -17 -4 -4 -32 -22 -41 -28 -15 -8 -49 -25 -55
-27 -4 -1 -10 -2 -16 -2 -12 -1 -13 -2 -8 -8 2 -3 4 -4 7 -5 3 0 9 -3 24 -14
2 -1 7 -4 10 -6 3 -2 7 -5 8 -7 2 -1 5 -3 8 -5 2 -2 7 -6 11 -9 8 -6 24 -19
29 -22 2 -2 7 -6 13 -10 16 -13 31 -24 33 -25 4 -2 9 -6 9 -8 0 -2 -4 -1 -9 3
-3 1 -6 3 -8 3 -1 0 -11 4 -21 10 -11 5 -23 11 -28 13 -5 2 -14 7 -20 10 -7 3
-15 7 -18 8 -4 1 -7 3 -8 4 -2 1 -5 3 -9 5 -11 5 -21 9 -22 9 0 0 -3 2 -5 4
-3 3 -5 4 -6 4 -3 -1 -13 3 -16 6 -1 0 -3 1 -5 2 -3 1 -16 7 -30 14 -26 13
-29 14 -31 9 0 -3 0 -3 10 -10 4 -3 5 -4 5 -10 1 -9 1 -14 0 -32 -1 -21 -3
-33 -5 -42 -1 -5 -4 -18 -6 -29 -2 -11 -5 -25 -6 -31 -2 -7 -3 -14 -4 -17 -1
-3 -2 -8 -3 -12 0 -4 -2 -14 -4 -22 -2 -9 -4 -19 -4 -21 -1 -2 -2 -6 -3 -8 -1
-6 -17 -72 -21 -87 -2 -8 -4 -17 -4 -19 0 -2 -1 -4 -1 -6 -1 -1 -2 -4 -3 -6
-1 -2 -3 -9 -4 -14 -2 -5 -4 -13 -5 -17 -2 -9 -10 -36 -17 -61 -7 -24 -10 -35
-13 -48 -5 -22 -15 -50 -30 -88 -12 -30 -20 -50 -26 -69 -2 -6 -5 -13 -6 -16
-2 -4 -3 -8 -3 -10 -1 -2 -2 -4 -2 -5 -1 -1 -4 -6 -6 -11 -2 -6 -5 -13 -7 -16
-2 -3 -7 -16 -12 -28 -14 -36 -27 -69 -30 -74 -1 -2 -6 -13 -10 -24 -5 -12
-11 -26 -13 -31 -2 -5 -7 -16 -10 -23 -6 -16 -15 -34 -20 -42 -6 -9 -11 -17
-13 -23 -2 -3 -5 -9 -7 -13 -3 -4 -7 -13 -10 -19 -4 -6 -7 -13 -8 -14 -6 -13
-10 -20 -14 -24 -2 -3 -5 -7 -6 -8 -1 -2 -3 -6 -5 -8 -4 -5 -18 -27 -36 -57
-7 -12 -14 -23 -15 -24 -2 -2 -4 -7 -7 -10 -4 -9 -8 -15 -12 -16 -1 -1 -3 -3
-3 -5 -1 -1 -3 -4 -5 -6 -3 -4 -3 -4 -7 -3 -6 1 -16 0 -18 -3 -1 -2 -1 -6 2
-8 2 -3 13 -4 18 -3 3 1 6 1 9 0 3 -1 14 -1 25 -1 10 -1 19 -1 20 -1 3 -2 23
-4 46 -5 13 0 27 0 29 -1 3 -1 29 -2 52 -2 11 -1 52 -4 62 -5 5 -1 44 -3 67
-4 10 -1 15 -2 17 -4 2 -2 10 -16 15 -26 15 -27 24 -45 26 -49 1 -3 4 -9 6
-13 5 -10 10 -23 13 -32 4 -9 6 -14 10 -17 3 -3 3 -4 2 -9 0 -5 0 -6 4 -11 3
-6 4 -7 3 -11 -1 -8 2 -15 6 -21 5 -5 11 -8 15 -8 2 0 5 -2 8 -4 2 -2 8 -5 12
-8 4 -3 10 -7 13 -11 7 -5 13 -9 27 -15 4 -2 8 -4 9 -6 5 -4 0 -6 -20 -7 -39
-2 -43 -2 -53 0 -7 1 -9 1 -10 0 -2 -1 -3 -7 -1 -7 0 0 3 -1 5 -1 8 -2 19 -2
37 -2 17 0 38 1 39 3 1 1 2 1 4 1 1 0 4 0 6 1 8 2 21 5 25 6 2 0 5 1 8 2 2 1
7 3 11 4 4 1 9 2 10 3 1 1 4 1 8 0 9 -2 25 -5 28 -5 2 0 7 -1 11 -2 5 -1 13
-2 18 -2 6 -1 13 -2 16 -3 6 -1 11 -1 38 -1 17 0 34 0 38 1 5 1 26 1 48 2 22
0 44 0 48 1 9 0 18 0 23 0 7 0 31 2 33 3 2 1 10 2 25 2 6 1 13 1 15 2 2 0 7 1
12 1 5 1 11 2 13 2 4 1 6 1 11 0 5 -1 8 -2 9 -1 3 1 7 0 10 -3 2 0 4 -1 5 -1
2 0 5 -1 7 -1 3 -1 9 -1 14 -1 6 -1 18 -1 27 -2 16 -1 32 -1 35 1 3 1 24 6 28
6 1 0 3 1 5 2 4 1 4 1 12 -1 5 -1 15 -2 23 -2 7 0 14 -1 15 -1 1 -1 24 -2 51
-2 15 0 20 1 28 2 4 1 12 3 16 4 3 0 8 2 9 2 1 1 6 1 11 1 4 1 9 1 10 2 2 1 5
1 11 -1 1 0 3 -1 3 -3 1 -2 3 -4 8 -7 8 -6 20 -12 22 -12 1 0 4 -1 6 -3 5 -3
14 -6 19 -6 1 0 6 -1 10 -1 9 -2 19 -1 44 5 3 0 7 1 8 1 1 0 4 2 6 4 4 3 5 3
8 3 3 -1 8 -2 11 -4 4 -2 9 -4 12 -4 2 -1 5 -1 7 -2 9 -3 13 -5 22 -7 4 -2 9
-4 10 -4 3 -2 19 -7 27 -8 5 -1 11 -2 16 -2 6 0 12 0 20 -2 9 -2 11 -2 17 -1
4 1 7 1 10 0 6 -2 22 -1 33 0 7 1 10 1 14 0 4 -1 4 -1 7 1 1 1 2 4 3 6 0 4 2
5 4 2 2 -2 2 -3 2 -7 -1 -5 -1 -5 -1 -9 0 -2 0 -3 -9 -5 -6 -2 -12 -3 -14 -3
-1 0 -6 -1 -9 -2 -3 0 -8 -1 -11 -1 -3 0 -7 0 -8 0 -6 0 -15 1 -24 3 -10 3
-13 2 -8 -1 5 -3 16 -6 25 -6 9 -1 11 -2 11 -3 0 -3 -4 -4 -12 -3 -20 2 -23 2
-23 1 0 -1 1 -2 1 -3 3 -1 21 -2 37 -2 17 0 25 1 35 3 3 1 7 2 8 2 2 0 5 1 6
2 3 2 3 3 1 13 0 3 0 3 4 5 2 0 5 2 7 4 3 3 25 18 32 21 2 1 7 4 11 7 3 2 6 4
7 4 0 0 2 1 4 2 1 2 4 3 5 4 2 0 5 2 7 4 2 2 5 4 6 4 1 1 3 2 5 3 1 1 5 3 8 5
4 3 9 6 11 7 2 2 6 5 8 6 2 1 7 4 10 7 4 2 9 5 12 7 3 1 7 4 8 5 4 3 8 5 12 6
3 1 12 6 24 15 4 2 11 6 16 9 11 5 19 10 23 13 1 1 3 2 4 2 1 0 4 1 6 3 2 2 7
4 9 6 2 1 6 3 9 5 2 1 5 3 7 4 2 0 4 2 5 3 3 2 12 8 19 11 2 1 6 4 10 6 3 3 6
5 7 5 0 0 4 2 8 4 4 3 8 6 10 7 2 0 6 3 9 5 3 2 5 3 6 3 1 -1 2 -1 11 2 3 1 3
1 5 -1 3 -3 7 -4 8 -3 1 0 2 1 2 3 1 2 1 2 3 1 3 0 6 2 6 6 0 3 3 5 6 5 2 0
11 5 11 6 0 1 -1 2 -2 4 -1 1 -2 3 -2 4 0 4 -11 5 -15 2 -2 -2 -5 -2 -6 0 -3
8 -8 15 -11 18 -6 6 -9 11 -28 45 -5 9 -11 18 -12 20 -2 3 -3 5 -3 5 0 1 -6
12 -14 24 -7 13 -15 27 -17 31 -2 3 -6 9 -7 11 -9 15 -11 19 -11 20 0 0 -1 2
-3 5 -2 2 -6 8 -9 14 -8 15 -17 30 -19 33 -1 1 -4 6 -6 11 -3 5 -7 13 -10 18
-3 4 -8 11 -10 15 -2 4 -9 15 -15 26 -6 11 -13 23 -16 27 -2 3 -8 13 -13 22
-5 8 -9 15 -9 16 0 0 -2 4 -5 8 -2 3 -8 13 -12 20 -4 7 -10 17 -13 22 -3 5 -6
11 -8 13 -1 2 -4 8 -6 11 -3 4 -6 9 -7 11 -2 4 -26 45 -35 59 -2 3 -6 11 -10
18 -4 6 -11 18 -16 26 -15 25 -20 34 -28 47 -4 7 -9 16 -12 20 -2 3 -8 14 -14
23 -5 9 -11 18 -13 21 -2 2 -4 6 -5 9 -1 2 -4 8 -7 12 -3 5 -10 17 -16 27 -5
9 -13 21 -15 26 -13 18 -17 25 -17 27 -1 1 -4 7 -7 13 -4 5 -10 15 -14 22 -4
7 -9 16 -12 20 -3 3 -6 9 -8 13 -2 3 -4 8 -6 10 -2 2 -5 8 -7 12 -2 3 -7 11
-10 16 -3 4 -7 11 -8 15 -4 7 -5 8 -27 45 -8 14 -17 28 -19 32 -2 3 -5 7 -7
10 -2 2 -3 6 -4 7 0 3 -4 10 -9 16 -2 3 -4 6 -5 8 0 2 -3 7 -6 11 -3 4 -6 10
-7 13 -2 2 -6 8 -9 13 -3 5 -6 11 -8 15 -2 3 -5 9 -8 13 -3 4 -5 8 -5 8 0 1
-4 8 -9 16 -5 9 -10 17 -11 19 -1 1 -6 10 -12 20 -11 18 -13 21 -17 28 -1 2
-3 5 -4 7 -1 1 -4 6 -8 12 -3 5 -6 11 -8 13 -1 1 -2 3 -2 4 0 1 -1 4 -3 6 -2
2 -4 7 -6 10 -2 3 -4 7 -5 9 -2 1 -3 3 -3 4 0 0 -2 5 -5 10 -3 4 -7 11 -9 15
-2 4 -6 11 -9 16 -10 15 -19 30 -21 35 -1 2 -4 7 -7 11 -2 3 -4 7 -4 7 0 1 -1
3 -2 4 -4 6 -31 50 -46 78 -3 5 -8 14 -12 20 -3 5 -9 15 -13 23 -5 7 -10 15
-12 19 -2 3 -5 8 -7 12 -8 13 -23 40 -26 44 -1 2 -4 7 -7 11 -6 11 -15 27 -16
29 -1 1 -6 9 -11 18 -5 8 -12 20 -16 27 -4 6 -8 13 -10 15 -1 3 -6 11 -10 18
-10 17 -16 26 -24 40 -3 5 -6 11 -7 12 -1 1 -3 4 -4 7 -2 3 -3 5 -4 6 -1 0 -2
3 -4 6 -2 4 -6 10 -8 15 -3 5 -7 12 -9 16 -2 3 -5 8 -6 9 -2 3 -2 4 -9 55 -2
18 -2 18 -6 19 -3 0 -4 0 -4 -1z m3 -80 c0 -2 1 -14 2 -26 1 -17 2 -23 3 -26
2 -5 4 -16 5 -30 0 -5 1 -18 2 -28 0 -11 2 -25 2 -32 1 -8 1 -20 2 -28 3 -35
4 -60 5 -69 0 -5 1 -12 1 -15 1 -2 2 -7 1 -10 0 -3 0 -11 1 -18 0 -8 1 -17 1
-20 1 -13 4 -52 5 -65 0 -7 1 -13 1 -14 1 0 1 -8 1 -16 1 -9 2 -27 3 -39 1
-13 2 -30 3 -39 2 -24 2 -26 3 -36 1 -6 1 -18 2 -27 2 -29 3 -47 4 -54 1 -4 2
-14 2 -22 1 -9 1 -21 2 -28 0 -7 1 -19 2 -28 1 -9 1 -20 2 -25 1 -5 2 -23 3
-39 1 -16 2 -32 3 -35 0 -3 1 -12 2 -20 0 -9 1 -22 2 -29 0 -8 2 -21 2 -28 1
-7 2 -21 2 -30 2 -16 2 -22 0 -22 -1 0 -9 8 -11 11 -1 3 -31 33 -41 43 -4 2
-7 6 -8 8 -1 2 -3 4 -4 5 -1 0 -4 4 -8 8 -3 4 -7 8 -9 9 -4 3 -13 11 -13 13 0
2 -36 37 -45 45 -4 3 -8 7 -9 9 -2 1 -5 5 -9 8 -3 3 -7 7 -8 8 -1 2 -3 4 -6 6
-11 9 -34 30 -42 39 -3 3 -12 11 -20 18 -8 7 -18 17 -22 21 -4 4 -11 11 -14
14 -4 4 -9 8 -10 10 -1 1 -7 5 -12 9 -5 4 -11 8 -13 10 -3 2 -9 6 -15 11 -6 4
-13 10 -15 12 -9 8 -19 16 -20 16 -1 0 -18 13 -28 20 -3 3 -7 6 -10 7 -2 1 -5
3 -6 5 -1 2 -5 4 -7 5 -3 2 -7 5 -10 8 -3 3 -7 7 -10 8 -2 2 -6 5 -10 8 -4 4
-8 7 -10 9 -3 2 -7 5 -9 7 -3 2 -7 5 -9 6 -4 2 -13 9 -14 11 -1 3 2 5 10 8 3
1 8 4 11 5 2 2 8 5 12 7 4 2 9 4 10 6 2 1 4 2 5 2 3 0 21 10 23 13 2 2 6 5 10
7 5 3 12 8 17 12 4 4 9 8 11 9 2 0 6 3 9 6 3 3 7 6 10 7 2 2 5 5 8 7 2 3 5 6
7 7 2 1 4 3 5 3 0 1 4 4 7 8 8 6 22 18 34 30 4 4 10 9 12 11 3 3 6 6 8 8 3 5
17 19 18 19 0 -1 -3 -7 -8 -13 -2 -2 -3 -4 -3 -5 0 0 -1 -2 -3 -4 -3 -4 -4 -6
-3 -8 1 -1 -1 -7 -3 -7 0 0 -2 0 -3 0 -1 -1 -3 -2 -3 -3 -2 -3 -16 -16 -21
-20 -8 -5 -15 -11 -17 -15 -1 -3 -3 -6 -5 -7 -2 -2 -4 -4 -5 -5 -1 -2 -3 -4
-15 -12 -9 -6 -11 -9 -9 -10 2 -1 3 -1 8 1 2 2 7 5 10 8 3 3 6 6 6 6 1 0 6 5
11 10 16 16 22 21 25 22 1 1 2 2 2 2 0 2 13 15 14 15 0 0 1 1 2 3 1 2 4 6 7
10 8 12 11 17 10 19 -1 2 0 4 3 4 1 0 3 1 6 5 8 12 9 15 7 19 -1 1 -1 2 1 5 1
2 3 5 4 7 1 1 2 3 4 4 1 0 3 3 5 5 1 2 4 5 6 8 7 8 9 11 14 20 3 4 6 10 8 12
1 1 4 5 6 9 5 8 8 13 13 19 2 2 3 5 3 6 0 0 1 3 3 6 1 2 2 5 2 6 0 3 2 6 4 6
0 0 2 2 3 3 0 2 1 4 2 5 1 0 2 3 4 6 1 3 4 8 7 12 2 4 8 14 13 23 4 8 10 19
13 24 3 4 5 8 5 9 0 0 2 4 5 9 3 5 6 11 8 14 1 3 3 7 5 10 2 2 4 7 6 11 1 4 5
10 7 15 5 8 10 20 12 28 1 5 4 5 5 -1z m30 -32 c3 -7 9 -16 13 -22 4 -7 13
-23 21 -36 9 -14 18 -30 22 -36 3 -6 9 -14 11 -18 6 -10 39 -66 46 -77 5 -10
15 -26 20 -34 2 -3 5 -9 8 -14 2 -4 9 -15 14 -24 17 -29 19 -33 27 -45 10 -19
26 -46 37 -63 5 -9 11 -19 12 -21 2 -3 6 -9 9 -14 3 -5 7 -12 9 -15 2 -4 7
-13 11 -19 7 -12 23 -39 29 -50 2 -2 5 -8 7 -12 3 -3 9 -14 13 -22 5 -9 10
-16 10 -16 1 -1 4 -5 6 -9 9 -17 22 -39 24 -40 0 -1 1 -2 1 -3 0 0 1 -3 3 -5
1 -3 4 -7 5 -9 2 -3 4 -7 6 -10 2 -3 5 -8 7 -12 4 -7 18 -31 23 -38 2 -3 5 -9
7 -12 2 -4 5 -8 7 -10 1 -1 2 -3 2 -4 0 -1 2 -6 5 -11 3 -5 6 -9 6 -10 1 -1
24 -41 28 -46 1 -2 3 -5 3 -5 0 -1 2 -5 5 -10 3 -5 6 -9 6 -10 0 -1 4 -7 9
-14 4 -7 10 -17 13 -23 5 -9 18 -30 35 -59 5 -7 9 -14 9 -14 0 -1 12 -20 14
-22 0 -1 3 -5 5 -9 2 -4 6 -12 9 -16 3 -5 7 -12 9 -15 2 -4 6 -10 8 -14 7 -10
23 -36 30 -48 5 -10 19 -33 24 -41 1 -2 3 -6 4 -8 2 -3 8 -14 14 -22 0 -2 2
-5 4 -7 1 -3 5 -9 8 -13 3 -4 5 -9 5 -9 0 -1 1 -4 3 -7 4 -5 16 -25 19 -30 1
-3 4 -7 5 -10 2 -2 6 -9 9 -15 4 -5 8 -12 10 -15 2 -3 5 -9 7 -13 2 -4 6 -10
8 -14 3 -3 6 -8 8 -11 1 -3 5 -9 8 -14 3 -5 7 -11 8 -14 3 -5 9 -14 17 -27 1
-2 3 -6 4 -7 1 -2 2 -4 2 -5 1 -1 3 -4 5 -8 2 -4 5 -9 7 -12 2 -4 6 -11 9 -16
4 -6 7 -11 8 -12 1 -2 3 -5 5 -9 2 -4 5 -9 7 -13 2 -3 5 -8 6 -11 5 -8 8 -13
14 -23 4 -5 8 -12 10 -15 2 -4 4 -7 4 -8 1 -1 3 -4 5 -8 2 -4 4 -8 6 -10 3 -6
13 -22 28 -49 8 -13 18 -30 22 -38 5 -8 11 -18 14 -23 6 -11 14 -26 20 -34 2
-4 8 -14 12 -22 11 -19 18 -32 21 -35 1 -2 2 -3 2 -3 0 -1 20 -36 25 -44 3 -4
6 -9 8 -10 3 -3 2 -6 -1 -6 -2 0 -21 20 -28 29 -3 4 -9 11 -13 16 -5 4 -9 10
-10 11 -1 1 -5 6 -10 10 -8 10 -27 31 -32 36 -1 2 -5 6 -7 8 -2 2 -8 9 -13 14
-5 5 -12 13 -16 18 -10 10 -29 31 -41 45 -5 5 -11 11 -13 13 -2 2 -4 5 -5 6
-1 2 -15 18 -25 29 -3 2 -8 8 -12 13 -7 7 -8 9 -13 13 -1 1 -7 8 -13 15 -14
16 -16 18 -37 41 -21 21 -43 45 -59 64 -5 6 -12 14 -16 17 -3 3 -9 10 -14 15
-8 9 -27 29 -28 30 -1 0 -4 4 -8 8 -4 5 -13 15 -20 23 -17 17 -19 21 -14 21 3
0 3 2 1 8 -1 3 -3 8 -4 11 -1 3 -4 7 -5 10 -2 2 -4 6 -5 8 -2 6 -7 6 -7 0 0
-1 2 -6 6 -11 8 -16 12 -27 8 -24 -4 1 -26 28 -28 32 -1 4 -4 11 -8 24 -2 7
-3 8 -5 5 -1 -2 -1 -4 1 -9 0 -3 1 -6 1 -7 -1 -1 -24 22 -24 24 0 0 0 1 1 2 2
0 1 5 -4 20 -5 14 -10 32 -10 34 0 2 -4 1 -5 -1 0 -1 1 -6 3 -12 2 -6 4 -14 5
-18 2 -5 3 -10 4 -12 1 -1 2 -4 3 -7 l0 -3 -2 2 c-5 4 -20 21 -22 26 -2 2 -5
11 -8 19 -3 9 -6 18 -7 21 -1 3 -3 9 -4 13 -4 19 -5 22 -6 22 -1 0 -2 -2 -2
-4 0 -5 4 -26 8 -36 2 -5 4 -10 5 -12 0 -2 1 -4 0 -4 0 -1 -5 1 -8 5 -1 1 -2
2 -3 2 0 0 -3 3 -6 8 -5 6 -7 9 -10 19 -2 7 -5 17 -6 23 -1 5 -3 13 -4 16 -1
4 -3 13 -4 20 -3 14 -4 16 -7 14 -1 -2 -1 -3 1 -14 3 -16 4 -20 9 -38 5 -17 6
-21 4 -21 0 0 -2 2 -4 4 -1 2 -5 6 -8 9 -6 6 -12 18 -14 27 -1 3 -2 10 -4 15
-5 15 -10 38 -12 55 -2 12 -3 17 -4 18 -2 1 -3 -2 -2 -8 0 -4 1 -11 1 -15 1
-13 5 -29 12 -49 3 -9 5 -17 5 -18 0 -3 -3 -2 -6 2 -1 2 -5 5 -7 8 -3 3 -5 5
-5 6 0 0 -1 2 -2 4 -4 5 -6 12 -13 49 -1 3 -1 7 -2 10 -1 3 -2 10 -2 15 -1 4
-2 10 -3 12 0 2 -2 9 -3 16 -3 16 -3 16 -4 16 -1 1 -3 0 -4 0 -1 -2 -1 -2 0
-8 2 -12 7 -38 8 -42 0 -3 1 -7 1 -8 1 -1 2 -4 2 -6 0 -3 2 -10 4 -17 5 -24 5
-26 -2 -19 -3 3 -7 8 -11 11 l-6 7 0 7 c-1 6 -2 9 -4 13 -2 3 -3 7 -4 12 0 3
-1 11 -2 17 -3 16 -4 27 -4 31 0 2 -1 8 -1 13 -1 4 -3 15 -4 23 -1 9 -2 15 -3
17 l-1 2 -2 -2 c-2 -2 -2 -7 0 -18 1 -4 2 -12 3 -18 1 -6 2 -15 3 -20 1 -6 3
-17 4 -25 0 -8 2 -18 3 -23 1 -9 1 -14 0 -14 -2 0 -8 7 -12 13 -3 5 -10 11
-12 11 -1 0 -2 2 -4 4 -2 3 -7 8 -11 13 -5 5 -11 12 -14 16 -3 3 -8 9 -10 12
-3 2 -7 7 -10 10 -2 2 -6 6 -7 9 -4 4 -5 7 -3 7 4 1 3 19 -1 40 -4 17 -6 26
-8 36 0 5 -2 11 -3 14 0 2 -1 6 -1 9 0 2 -1 7 -1 9 -1 3 -3 10 -4 16 -3 26 -5
34 -6 34 -2 0 -1 -13 2 -28 1 -6 2 -14 2 -18 1 -4 2 -11 3 -15 1 -5 3 -15 3
-22 1 -7 3 -17 4 -21 4 -19 5 -28 6 -38 1 -16 0 -18 -7 -8 -3 3 -5 6 -6 6 -1
0 -2 2 -3 4 -2 2 -5 6 -8 8 l-4 5 0 9 c0 4 -1 11 -1 15 -1 4 -2 11 -2 16 -1
13 -3 24 -5 31 -2 7 -5 22 -6 29 0 3 -1 8 -1 12 -1 3 -2 7 -2 9 0 1 -1 5 -2 9
-4 12 -7 31 -10 58 -1 12 -5 28 -7 32 -1 2 -2 5 -2 6 0 1 -1 4 -2 7 -1 3 -3 8
-3 12 -1 3 -3 9 -4 13 -2 9 -6 23 -8 33 -4 19 -5 26 -8 33 -2 4 -4 10 -5 15 0
4 -2 11 -4 16 -2 4 -3 9 -3 10 0 2 -1 5 -1 7 -2 5 -8 26 -12 43 -2 6 -4 14 -6
18 -1 4 -2 9 -2 10 0 2 -3 16 -7 28 -1 3 -3 9 -4 14 -4 17 -14 50 -21 69 -1 3
-3 10 -5 15 -1 4 -3 11 -4 13 -1 3 -2 6 -2 7 0 1 -1 5 -2 10 -2 4 -4 11 -5 15
-1 4 -3 10 -4 12 -2 6 -9 27 -16 47 -2 6 -5 15 -7 19 -1 4 -5 14 -7 21 -2 7
-5 16 -6 18 -1 2 -2 7 -3 11 -3 10 -11 35 -17 51 -8 19 -11 33 -10 41 l0 3 3
-2 c1 -1 5 -7 8 -13z m5 -69 c0 -2 1 -6 2 -9 2 -4 4 -11 5 -16 2 -5 6 -18 10
-29 4 -11 10 -28 13 -37 3 -10 8 -26 11 -35 3 -9 8 -24 11 -33 6 -19 16 -52
22 -69 1 -6 4 -14 4 -17 1 -4 3 -9 3 -11 1 -2 4 -12 6 -20 2 -9 5 -20 7 -24 1
-5 3 -12 4 -16 3 -12 3 -14 8 -30 4 -15 13 -49 16 -58 0 -3 2 -9 3 -13 1 -4 3
-10 4 -13 1 -3 2 -9 3 -13 1 -4 3 -13 5 -19 2 -7 4 -18 6 -24 3 -15 5 -21 11
-41 8 -28 10 -37 5 -38 -1 -1 -5 -4 -9 -6 -4 -3 -10 -6 -12 -7 -11 -4 -24 -11
-33 -18 -3 -2 -5 -3 -5 -3 -1 0 -2 4 -3 8 -2 17 -5 34 -6 39 -1 3 -2 10 -3 17
-1 6 -3 13 -3 17 -1 4 -1 9 -2 13 -1 3 -2 8 -2 12 -1 4 -2 14 -4 24 -2 10 -4
20 -4 23 -1 2 -2 10 -3 18 -2 7 -4 19 -6 28 -1 8 -3 19 -4 24 -1 5 -3 14 -3
20 -2 12 -4 19 -5 26 -1 2 -2 8 -2 12 0 3 -2 15 -5 26 -2 11 -3 21 -4 23 0 1
-2 12 -4 23 -1 11 -3 21 -4 22 -1 2 -1 5 -1 6 0 2 -1 7 -1 11 -1 3 -3 13 -4
20 -1 7 -3 20 -5 29 -2 9 -3 19 -3 23 -1 3 -2 10 -3 15 -2 15 -10 62 -11 68
-1 4 -2 8 -2 10 -1 5 -7 43 -7 47 0 2 0 2 2 1 0 -1 1 -4 2 -6z m-6 -89 c0 -6
1 -14 4 -26 1 -7 4 -29 6 -42 1 -5 1 -10 2 -11 0 -2 1 -7 2 -12 1 -5 2 -13 3
-18 2 -13 3 -24 3 -28 1 -12 2 -20 4 -30 1 -6 3 -19 5 -27 3 -26 4 -31 6 -42
3 -14 5 -28 6 -35 0 -4 1 -10 2 -14 0 -5 2 -14 3 -20 1 -6 3 -18 4 -25 2 -8 4
-19 4 -23 1 -15 3 -28 4 -31 1 -2 1 -4 1 -6 0 -1 1 -5 2 -9 1 -4 1 -7 1 -8 -1
-1 -3 -2 -5 -3 -5 -1 -7 -3 -7 -6 0 -3 -3 -6 -9 -9 -3 -1 -5 -3 -5 -4 0 -1 3
-7 6 -9 2 -1 3 -6 5 -19 2 -9 5 -21 6 -26 3 -9 5 -28 5 -35 0 -2 -1 -6 -2 -8
-2 -3 -3 -6 -3 -7 0 -2 0 -3 -1 -3 -4 -3 4 -14 11 -14 3 0 5 -5 6 -14 1 -4 1
-8 2 -10 1 -6 4 -20 5 -24 3 -26 8 -53 9 -53 1 -1 2 -4 2 -6 0 -6 1 -16 4 -31
1 -4 2 -11 2 -17 1 -6 3 -14 3 -18 2 -8 3 -17 7 -39 1 -8 3 -18 4 -23 1 -6 3
-14 3 -19 1 -5 3 -15 4 -23 3 -16 7 -43 9 -54 1 -4 2 -12 2 -17 2 -12 4 -26 7
-38 0 -4 1 -9 1 -11 0 -3 2 -13 6 -38 1 -9 3 -20 4 -25 2 -14 4 -30 5 -35 0
-2 1 -8 2 -11 0 -4 1 -10 1 -12 1 -6 3 -18 10 -69 1 -6 3 -18 5 -26 1 -9 3
-20 3 -25 1 -5 2 -16 4 -24 1 -8 3 -18 3 -21 0 -4 1 -11 2 -16 1 -5 3 -13 3
-19 1 -7 3 -15 4 -19 0 -4 2 -13 2 -19 1 -6 3 -15 3 -19 3 -13 4 -20 5 -26 0
-3 1 -8 1 -10 1 -3 2 -9 2 -13 1 -4 2 -10 2 -13 1 -3 2 -11 3 -17 0 -7 2 -17
3 -23 2 -11 4 -22 5 -33 1 -11 4 -28 6 -36 0 -5 2 -13 2 -18 1 -5 2 -15 4 -22
1 -7 2 -17 3 -20 1 -4 2 -10 2 -14 2 -7 2 -15 1 -16 0 -1 -2 0 -5 1 -5 3 -6 5
-7 15 0 6 0 6 2 9 4 4 4 8 1 9 -1 1 -2 3 -3 5 -1 5 3 4 -40 9 -11 2 -12 2 -14
5 -2 2 -3 4 -3 5 0 0 -1 3 -3 5 -2 2 -5 8 -7 12 -2 5 -6 11 -8 14 -1 2 -4 7
-5 9 0 2 -3 8 -5 12 -3 4 -6 10 -7 13 -2 4 -4 7 -4 8 -1 1 -4 6 -7 13 l-6 11
-1 14 c-1 7 -2 20 -2 29 -1 8 -1 18 -2 22 -1 3 -2 16 -3 28 -2 36 -5 76 -8
100 -1 5 -1 13 -1 17 -1 3 -1 12 -2 18 -1 6 -1 19 -2 28 -1 8 -1 19 -2 24 -1
4 -1 12 -2 18 0 11 -3 50 -5 76 -1 9 -2 23 -3 32 -1 21 -5 62 -6 75 -1 5 -1
14 -1 20 -1 6 -1 11 -2 12 0 1 -1 7 -1 14 0 11 0 19 -3 51 -1 14 -4 44 -5 53
0 3 0 8 0 11 -1 14 -3 36 -4 46 -1 14 -5 51 -7 76 0 12 -2 29 -3 39 0 10 -1
22 -1 28 -1 5 -1 14 -2 19 -1 5 -1 17 -2 27 -1 9 -2 24 -3 34 0 9 -2 27 -2 40
-1 12 -2 25 -3 29 -1 4 -1 7 -1 8 0 1 0 5 0 10 -1 5 -2 18 -2 31 -1 12 -2 25
-3 29 0 3 -1 16 -2 27 -1 11 -1 20 -2 20 0 1 0 7 -1 16 0 8 0 16 0 18 -3 22
-4 33 -6 69 0 4 0 12 -1 17 -1 5 -1 15 -2 22 0 7 -1 20 -2 30 0 10 -2 24 -2
31 0 7 -1 18 -2 23 -1 10 -3 35 -4 52 0 6 0 14 -1 16 0 2 -1 10 -1 18 0 7 -1
14 -1 16 -1 2 -1 5 -1 7 l1 3 2 -3 c0 -2 1 -6 1 -9z m-484 -322 c14 -7 26 -12
26 -12 1 0 2 0 3 -1 2 -2 75 -38 77 -38 0 0 2 -1 4 -3 2 -1 7 -3 11 -5 6 -2
25 -12 41 -21 4 -2 10 -6 15 -8 14 -7 20 -11 21 -13 1 0 2 -1 4 -1 1 0 5 -1 8
-3 3 -2 11 -6 19 -9 14 -7 19 -11 29 -21 5 -5 10 -10 39 -37 8 -7 18 -17 24
-23 7 -6 14 -12 16 -14 3 -3 12 -12 21 -20 9 -9 25 -25 36 -34 10 -10 21 -22
25 -26 4 -4 10 -10 13 -13 4 -4 11 -11 16 -16 4 -5 15 -17 23 -25 16 -17 16
-15 6 -25 -8 -8 -19 -20 -25 -27 -5 -6 -4 -5 -14 -14 -22 -19 -35 -31 -42 -37
-3 -4 -15 -16 -26 -26 -11 -11 -34 -33 -51 -50 -17 -16 -31 -30 -32 -31 -3 0
-5 2 -5 6 0 2 -5 13 -13 29 -2 4 -6 12 -9 17 -3 5 -5 10 -6 11 -1 1 -2 4 -3 6
-1 3 -4 8 -7 12 -2 3 -6 12 -9 18 -4 6 -7 12 -8 14 -2 2 -8 13 -13 25 -1 2 -3
5 -5 9 -2 4 -5 8 -5 10 -1 2 -3 6 -12 19 -2 2 -3 5 -3 6 0 1 -1 2 -2 4 -1 1
-3 5 -5 8 -1 3 -3 7 -5 8 -1 2 -3 6 -6 10 -3 8 -3 8 -2 12 1 1 2 4 2 4 0 1 1
3 3 5 2 4 3 7 1 7 -1 0 -3 -3 -5 -7 -2 -4 -4 -7 -5 -7 -1 0 -4 6 -7 12 -15 28
-21 41 -23 42 -2 3 -16 31 -16 34 0 1 1 6 2 10 1 5 2 11 3 15 1 3 2 7 3 10 1
4 1 4 -1 6 l-1 2 -2 -3 c0 -1 -1 -4 -1 -5 0 -2 -1 -4 -1 -6 -1 -1 -2 -5 -2 -7
-2 -8 -4 -15 -5 -15 -2 0 -6 4 -8 10 -1 2 -3 5 -4 6 -2 1 -3 3 -4 5 0 1 -1 3
-1 4 -1 0 -1 1 -1 2 0 2 -7 14 -17 31 -6 9 -6 9 -6 15 2 14 2 18 1 19 -2 2 -2
1 -3 -6 0 -5 -1 -7 -2 -7 -2 0 -7 7 -13 21 -3 6 -6 12 -8 13 -1 2 -4 7 -5 11
-2 4 -4 9 -6 11 -1 2 -3 5 -4 6 0 2 -3 7 -6 12 -3 5 -6 10 -7 12 -1 3 -4 6 -7
9 -2 2 -6 8 -8 13 -7 12 -11 20 -13 22 -1 1 -4 6 -8 12 -3 6 -6 12 -8 13 -3 5
-4 10 -1 10 0 0 12 -5 25 -12z m-28 -7 c4 -7 9 -16 10 -18 10 -16 16 -27 24
-38 8 -11 21 -33 26 -43 3 -6 3 -9 0 -27 -2 -8 -4 -20 -5 -26 -1 -7 -3 -14 -3
-16 0 -2 -1 -7 -2 -12 -3 -20 -3 -24 -5 -30 -3 -14 -4 -22 -5 -26 0 -3 -2 -8
-3 -12 -1 -6 -1 -9 1 -6 1 1 4 14 7 28 1 4 3 10 3 14 3 12 5 22 6 28 0 3 1 9
2 14 0 5 1 12 2 17 1 5 2 9 2 10 1 1 2 7 3 14 1 14 2 16 7 10 2 -2 3 -5 4 -6
0 -1 3 -8 7 -15 4 -7 7 -13 7 -14 0 0 1 -1 2 -2 4 -5 5 -10 4 -19 -2 -17 -6
-38 -10 -49 -2 -7 -4 -15 -4 -18 0 -3 -2 -8 -2 -11 -1 -3 -3 -8 -4 -12 0 -4
-2 -9 -3 -12 0 -3 -2 -7 -2 -9 0 -2 -1 -5 -2 -6 -1 -4 -1 -8 0 -8 1 0 3 6 4
11 1 2 3 9 5 15 2 7 4 13 4 14 0 2 1 4 1 6 4 9 14 53 16 70 1 4 1 7 1 8 2 1 4
-2 8 -9 9 -17 14 -26 23 -40 10 -15 10 -15 9 -20 0 -2 -1 -5 -1 -7 -1 -2 -3
-8 -5 -14 -5 -18 -11 -36 -17 -55 -3 -10 -6 -19 -6 -19 0 -1 -1 -3 -1 -4 -2
-4 -6 -16 -10 -27 -1 -4 -2 -9 -2 -11 0 -3 -1 -5 -1 -6 -2 -1 -5 -7 -9 -20 -2
-5 -6 -15 -9 -21 -4 -12 -5 -15 -3 -15 1 1 2 1 10 24 3 8 7 16 8 18 0 1 2 6 4
10 1 3 3 10 5 15 2 5 4 12 5 16 4 11 10 28 12 33 1 2 3 7 4 12 7 23 9 30 10
32 2 4 4 12 4 14 0 1 1 4 2 7 1 3 2 7 3 8 0 2 1 4 2 4 1 0 8 -9 8 -11 0 -1 2
-4 4 -8 2 -4 8 -15 13 -26 6 -11 12 -23 15 -28 3 -5 5 -9 5 -9 0 -1 -3 -7 -6
-15 -4 -7 -7 -13 -7 -14 0 -1 -2 -7 -4 -10 -7 -14 -28 -56 -29 -59 -2 -6 -2
-6 -5 -11 -2 -3 -4 -7 -5 -9 -4 -10 -12 -27 -16 -33 -1 -4 -3 -7 -2 -7 1 0 2
1 2 3 2 4 3 5 7 11 2 2 2 3 6 12 1 2 3 6 4 8 1 1 3 5 4 8 1 3 4 7 6 9 1 2 3 4
3 5 0 1 1 4 2 6 1 2 2 5 2 7 1 2 2 4 3 5 0 1 2 4 3 8 2 3 4 8 6 11 2 3 4 7 4
9 2 4 4 10 13 28 3 6 6 12 7 14 1 5 3 7 4 7 2 0 9 -11 15 -23 2 -4 7 -12 10
-18 4 -6 7 -12 7 -13 1 -2 -5 -14 -10 -22 -1 -2 -4 -7 -15 -29 -3 -6 -7 -13
-9 -15 -1 -3 -5 -9 -7 -13 -6 -12 -8 -16 -10 -18 -2 -2 -10 -16 -13 -22 -1 -3
-4 -8 -7 -11 -6 -10 -13 -23 -13 -24 1 -1 5 3 7 8 0 1 2 3 3 5 2 2 14 21 24
37 2 3 6 10 8 14 2 3 5 8 6 9 1 1 3 6 6 11 16 31 19 36 21 40 1 1 2 3 2 4 0 1
1 3 2 5 2 1 4 5 5 8 1 3 3 5 4 5 1 0 10 -15 10 -17 0 0 3 -5 6 -12 3 -6 9 -16
13 -23 4 -7 9 -17 12 -23 4 -6 14 -25 23 -43 18 -38 18 -35 9 -42 -2 -2 -6 -5
-8 -8 -3 -2 -12 -11 -21 -20 -10 -8 -20 -18 -22 -20 -2 -3 -10 -10 -16 -16
-11 -10 -28 -25 -33 -31 -2 -1 -5 -3 -7 -5 -2 -2 -8 -6 -12 -10 -14 -13 -35
-31 -36 -31 -1 0 -2 -1 -2 -3 -1 -1 -4 -4 -6 -5 -2 -1 -7 -5 -11 -8 -3 -3 -9
-7 -12 -9 -3 -3 -8 -7 -11 -9 -3 -3 -9 -8 -13 -11 -4 -3 -11 -8 -14 -11 -4 -3
-11 -9 -15 -12 -4 -3 -10 -8 -14 -11 -3 -3 -8 -6 -9 -7 -2 -2 -6 -4 -8 -7 -3
-3 -8 -6 -11 -9 -3 -2 -8 -6 -11 -9 -3 -2 -10 -8 -16 -12 -5 -4 -14 -12 -19
-16 -6 -5 -13 -11 -15 -13 -3 -2 -7 -5 -10 -7 -3 -3 -11 -9 -18 -14 -11 -8
-30 -22 -39 -28 -2 -1 -4 -2 -5 -2 0 1 -2 1 -2 2 -1 0 -2 -1 -3 -4 -1 -4 -6
-9 -8 -9 -2 0 -14 -8 -19 -14 -6 -5 -19 -12 -20 -11 -1 0 -1 3 -1 6 0 4 0 5
-2 5 -1 0 -2 -3 -3 -7 -4 -13 -5 -14 -11 -19 -3 -2 -8 -6 -10 -8 -3 -2 -6 -5
-8 -6 -2 -1 -6 -3 -9 -5 -7 -5 -8 -5 -9 0 0 2 -1 4 -2 4 -1 0 -2 -2 -3 -4 -3
-11 -5 -14 -12 -18 -4 -3 -7 -6 -8 -6 -1 -1 -2 -2 -2 -2 -1 0 -5 -2 -9 -5 -11
-6 -12 -5 -7 7 3 6 4 10 3 10 -1 1 -3 -2 -5 -8 -1 -3 -2 -6 -4 -9 -1 -2 -2 -5
-2 -5 0 -2 -4 -5 -13 -11 -5 -3 -14 -8 -19 -11 -9 -5 -15 -9 -40 -24 -12 -6
-13 -7 -15 -6 -4 2 -6 1 -8 -4 -2 -6 -7 -9 -37 -25 -13 -6 -14 -6 -9 3 2 4 4
8 6 9 1 1 3 4 4 7 1 2 2 4 3 4 0 0 2 2 4 5 1 3 4 8 6 11 3 6 4 7 10 18 2 4 5
7 6 9 1 1 3 4 5 8 3 5 18 27 24 35 2 2 5 6 6 9 2 3 5 7 6 10 2 2 3 4 3 5 0 2
13 26 22 42 5 9 9 17 9 18 0 1 1 3 2 4 2 3 11 16 11 17 0 0 4 8 9 20 2 4 4 10
5 12 1 3 2 6 3 8 1 3 5 11 8 19 3 9 7 16 7 17 1 0 2 5 4 10 4 10 6 15 8 18 1
1 3 5 3 8 1 2 4 8 5 12 5 10 15 33 15 35 0 0 1 2 1 4 6 12 11 25 12 30 1 3 2
8 4 12 2 3 6 12 9 19 4 7 8 16 9 20 1 3 3 8 4 11 6 13 10 28 10 32 0 3 1 4 2
5 2 1 9 17 9 19 0 1 2 6 5 12 3 7 6 14 7 18 1 3 2 8 4 11 1 3 4 9 5 13 1 3 3
8 4 11 1 2 3 7 4 11 1 4 3 9 4 11 2 4 4 11 9 30 6 28 8 35 10 41 5 15 13 40
14 48 0 2 1 5 2 6 0 2 1 4 1 5 0 2 2 8 4 15 2 7 4 15 5 18 1 3 2 7 3 8 0 2 1
4 1 5 0 1 1 4 2 8 1 3 3 8 3 10 0 2 2 7 2 9 2 5 4 11 5 21 0 2 1 5 2 6 1 2 4
15 9 35 0 3 2 9 3 13 3 8 4 15 4 18 0 1 1 6 2 10 1 3 2 9 3 12 1 3 2 9 3 14 1
5 2 10 2 11 0 3 4 22 6 31 3 13 6 28 8 38 1 3 2 9 3 13 4 13 5 20 6 40 0 10 1
20 1 22 2 7 3 9 4 9 1 0 4 -7 8 -15z m577 -89 c2 -3 1 -5 -2 -5 -3 0 -5 2 -4
4 1 2 4 2 6 1z m4 -27 c0 -2 1 -6 2 -11 3 -25 4 -30 5 -35 3 -10 4 -23 3 -24
-1 -2 -3 0 -4 6 -1 2 -3 8 -4 14 -2 5 -4 14 -5 20 -1 5 -2 12 -3 16 -1 6 -1
12 1 16 0 2 3 1 5 -2z m101 -46 c1 -2 1 -7 2 -11 1 -5 3 -15 5 -23 3 -14 5
-25 7 -35 1 -11 3 -21 4 -27 4 -13 6 -27 7 -34 0 -5 1 -11 2 -15 0 -4 1 -9 2
-12 1 -8 -1 -7 -12 7 -9 11 -12 15 -31 37 -4 5 -10 12 -11 14 -2 2 -4 6 -6 7
-1 1 -5 7 -9 13 -7 10 -17 24 -23 30 -4 4 -4 6 -1 11 2 2 2 4 2 6 -1 4 -1 5 7
10 9 6 16 10 26 13 5 2 11 4 13 6 15 10 15 10 16 3z m-84 -30 c0 -1 -1 -2 -2
-3 -4 -2 -6 -1 -6 2 0 3 1 3 7 4 0 0 1 -1 1 -3z m12 -20 c2 -3 6 -9 9 -12 3
-4 7 -10 9 -13 6 -8 20 -27 27 -34 3 -3 7 -8 9 -11 2 -3 13 -17 27 -33 3 -3
12 -14 20 -23 9 -10 19 -21 23 -26 4 -4 12 -13 18 -20 15 -18 27 -31 28 -32 1
0 2 -1 3 -3 1 -1 8 -10 16 -18 9 -9 21 -22 28 -30 7 -8 15 -16 17 -18 2 -2 4
-4 5 -6 1 -1 5 -5 8 -8 3 -4 8 -9 10 -12 5 -7 20 -23 25 -28 2 -2 9 -10 16
-17 6 -7 12 -14 12 -14 0 0 3 -3 6 -7 6 -7 8 -9 16 -18 2 -3 6 -7 8 -9 2 -2 4
-4 4 -5 0 0 4 -5 9 -10 5 -5 10 -11 12 -13 9 -13 30 -36 33 -37 1 0 2 -1 2 -2
1 -1 5 -6 14 -14 0 -1 3 -4 6 -8 3 -4 10 -11 15 -17 6 -6 11 -12 13 -13 1 -2
9 -11 18 -21 9 -10 17 -19 19 -21 6 -7 15 -17 28 -31 8 -8 18 -19 22 -23 3 -5
9 -11 11 -13 2 -3 9 -10 15 -17 6 -7 13 -15 17 -19 4 -4 13 -14 20 -23 8 -8
20 -21 26 -27 7 -7 17 -18 23 -25 6 -6 13 -14 16 -17 7 -7 22 -24 24 -27 1 -1
7 -8 14 -15 6 -7 14 -15 17 -18 2 -4 6 -8 8 -9 2 -2 6 -7 9 -10 3 -4 8 -11 12
-14 11 -12 17 -18 22 -24 3 -4 6 -7 8 -8 1 -2 4 -5 7 -9 3 -3 10 -12 17 -19 6
-7 18 -19 25 -28 8 -8 19 -20 24 -26 6 -7 13 -14 15 -17 3 -3 10 -11 17 -18
14 -14 18 -19 18 -21 -1 -3 -10 -3 -14 -2 -4 2 -9 3 -36 3 -13 1 -37 1 -51 2
-15 0 -33 1 -39 1 -7 1 -21 1 -31 2 -11 0 -27 1 -36 1 -9 0 -35 1 -57 0 -22 0
-51 0 -64 1 -15 0 -36 0 -53 -1 -40 -1 -72 -1 -79 0 -10 2 -83 -1 -91 -4 -2 0
-41 -5 -55 -6 -6 -1 -18 -3 -27 -5 -10 -2 -20 -4 -23 -4 -3 0 -9 -2 -14 -2 -5
-1 -11 -2 -13 -3 -3 0 -8 -2 -11 -2 -3 -1 -10 -2 -14 -3 -5 -1 -13 -2 -18 -3
-15 -3 -15 -3 -16 -1 0 1 -1 11 -1 23 0 18 0 22 -2 24 -1 2 -1 4 -1 7 1 3 1
14 2 24 0 20 -1 29 -4 32 -1 2 -1 3 0 6 1 5 1 13 -1 17 -2 3 -2 5 -1 11 1 3 1
9 1 12 0 3 0 7 0 9 0 2 -1 4 -1 5 -1 1 -1 9 -1 19 0 13 0 18 -1 23 -1 3 -2 13
-3 23 -1 9 -1 18 -2 20 -1 1 -1 6 -1 11 -1 5 -1 12 -2 16 -2 6 -4 25 -6 43 0
3 -1 10 -2 14 -1 6 -2 14 -4 41 -2 25 -5 49 -7 59 -1 3 -1 8 -1 11 0 4 -1 13
-3 21 -1 7 -3 17 -3 20 -1 4 -1 7 -1 8 -1 0 -1 6 -2 14 -1 7 -1 15 -2 17 0 2
-2 10 -3 17 -1 6 -3 15 -4 19 -2 7 -3 11 -5 29 -1 4 -2 11 -3 14 -1 4 -2 10
-3 14 -1 4 -1 8 -2 9 0 1 -1 7 -2 12 -1 4 -2 12 -3 16 -1 3 -3 11 -4 18 -1 6
-3 14 -4 19 -3 15 -5 23 -6 28 0 2 -1 7 -1 10 -1 2 -3 7 -3 10 -1 3 -2 8 -3
11 0 6 -2 12 -6 22 -3 8 -5 15 -6 24 0 5 -2 11 -3 13 -1 2 -2 6 -2 8 0 2 -1 6
-2 9 -1 2 -3 6 -3 9 -1 6 -4 16 -6 22 -1 2 -2 6 -2 8 0 4 -3 18 -6 28 -2 4 -3
8 -3 10 0 1 -1 6 -3 10 -2 5 -3 11 -4 13 -1 5 -3 10 -7 22 -3 10 -5 16 -5 23
-1 2 -2 7 -4 11 -2 4 -4 13 -6 26 -3 17 -3 20 -2 24 1 2 2 4 3 4 0 0 2 -2 4
-5z m-88 -149 c3 -2 8 -8 11 -12 4 -4 9 -10 12 -14 2 -3 6 -8 8 -10 2 -3 3 -5
3 -11 1 -3 1 -8 1 -9 0 -2 1 -8 1 -12 1 -5 1 -12 2 -15 0 -4 0 -13 1 -21 1 -9
2 -20 2 -26 1 -7 1 -17 2 -23 3 -34 5 -68 6 -77 1 -7 1 -15 2 -18 0 -4 0 -12
1 -17 0 -6 1 -14 1 -19 1 -5 1 -14 2 -21 1 -7 2 -28 3 -46 3 -31 5 -54 7 -80
0 -7 1 -19 2 -28 1 -10 2 -24 2 -32 1 -8 3 -24 3 -36 1 -12 2 -26 3 -32 1 -7
1 -15 1 -18 1 -4 1 -13 2 -20 2 -27 3 -35 4 -49 1 -9 2 -19 2 -23 1 -8 2 -20
3 -42 1 -11 0 -12 -5 -4 -4 6 -14 26 -14 30 -1 2 -2 4 -3 5 -1 2 -3 5 -4 7 -1
4 -15 27 -19 32 -1 2 -4 5 -5 6 -2 1 -3 3 -4 4 0 2 -2 6 -5 11 -11 19 -13 23
-16 28 -2 3 -5 9 -7 13 -4 10 -8 17 -12 25 l-3 6 2 10 c1 5 3 14 5 19 2 9 6
29 6 37 1 3 1 6 2 9 0 2 1 6 1 10 1 3 2 10 3 16 1 6 3 15 3 21 3 13 6 29 7 33
1 3 0 5 -3 6 -2 0 -3 -1 -3 -4 -2 -12 -6 -42 -7 -49 0 -4 -1 -9 -2 -11 -1 -2
-2 -5 -2 -7 0 -3 -1 -10 -5 -24 -2 -10 -3 -14 -1 -14 2 -1 0 -11 -4 -31 -3
-13 -4 -14 -6 -11 -1 1 -2 3 -2 4 0 0 -1 3 -3 6 -2 2 -7 11 -10 18 -7 13 -7
14 -6 18 1 5 1 6 -2 4 -2 -1 -3 -1 -4 1 0 1 -1 2 -1 4 0 1 -1 2 -1 3 -4 3 -1
6 3 3 3 -1 3 -1 5 0 1 2 1 2 -1 5 -2 4 -6 5 -8 2 -4 -3 -6 -2 -10 5 -8 14 -10
18 -10 20 0 2 -1 4 -4 7 -2 2 -5 7 -7 12 -2 4 -5 10 -7 12 -4 5 -4 6 -1 19 1
6 3 15 4 20 0 5 2 14 3 19 2 16 5 33 7 47 1 7 2 16 3 19 1 2 1 9 2 15 0 5 2
20 4 33 3 28 4 51 2 55 -3 6 -6 2 -6 -8 0 -3 0 -7 -1 -10 -1 -2 -1 -9 -2 -15
-4 -35 -7 -62 -8 -66 -1 -3 -1 -8 -2 -12 0 -7 -1 -16 -3 -26 -1 -5 -2 -13 -5
-31 -1 -15 -4 -33 -5 -36 0 -4 -3 -2 -7 5 -8 13 -7 11 -6 20 1 5 2 10 2 12 1
2 2 7 3 12 0 5 2 17 3 27 2 13 3 19 2 20 -3 6 -5 -4 -12 -44 -2 -10 -4 -19 -4
-21 -1 -1 -1 -1 -3 0 -2 2 -10 15 -10 17 0 1 -2 6 -4 11 -5 9 -6 11 -3 23 3
16 6 45 6 61 0 7 0 9 -2 12 -3 4 -6 4 -7 -1 -1 -4 -1 -4 1 -6 2 -2 2 -3 2 -6
-1 -3 -1 -10 -2 -17 -1 -7 -1 -13 -2 -14 0 -2 -1 -8 -1 -15 -2 -13 -2 -14 -4
-14 -3 0 -9 8 -9 11 0 1 -1 4 -3 7 -8 16 -15 30 -15 33 0 3 4 18 7 25 0 2 1 5
1 7 0 1 1 8 3 16 1 7 3 17 4 22 0 4 1 11 2 14 1 6 1 8 -1 8 -1 0 -3 -6 -6 -24
-2 -10 -4 -23 -5 -28 -2 -10 -4 -24 -6 -34 -1 -6 -2 -7 -5 -2 -1 3 -3 5 -3 6
-1 1 -2 3 -2 4 -1 3 -11 21 -15 28 -3 4 -12 20 -12 23 -1 2 1 4 9 12 6 5 22
21 37 35 32 31 45 45 59 57 5 5 15 15 23 22 7 7 15 15 19 18 4 2 12 11 19 19
7 7 16 17 20 20 3 4 8 9 9 11 1 2 3 4 3 4 1 0 3 -2 5 -5z m115 -28 c2 -9 3
-13 6 -23 1 -5 2 -11 3 -13 1 -5 9 -36 15 -58 2 -6 4 -14 5 -17 0 -4 2 -10 3
-14 1 -3 2 -8 2 -10 0 -3 2 -13 5 -25 0 -4 2 -11 3 -16 1 -6 2 -13 3 -16 1 -4
3 -11 3 -16 1 -5 3 -13 4 -17 3 -17 4 -23 5 -28 1 -6 3 -19 5 -26 5 -25 12
-62 13 -78 1 -3 1 -6 2 -6 0 -1 1 -5 1 -9 1 -4 2 -12 2 -17 2 -11 4 -26 5 -31
0 -2 0 -8 1 -13 1 -8 3 -28 6 -53 1 -5 1 -12 2 -15 1 -6 2 -19 5 -47 1 -7 3
-17 3 -23 3 -16 6 -40 8 -55 2 -20 3 -49 1 -49 -1 0 -2 3 -2 8 -1 2 -1 6 -2
10 0 3 -2 10 -3 16 0 5 -2 15 -3 23 -1 7 -3 16 -3 20 0 4 -1 10 -2 13 -1 2 -2
8 -2 13 -1 4 -2 9 -3 12 0 2 -1 5 0 6 0 2 -1 11 -6 36 -3 15 -5 25 -6 32 -2
11 -2 13 -3 22 -1 4 -2 10 -3 14 0 3 -1 10 -2 15 -1 4 -2 11 -3 15 -1 8 -3 19
-4 31 -1 4 -1 11 -2 14 -1 3 -1 9 -2 13 0 4 -2 11 -3 16 -1 9 -3 17 -4 31 -1
9 -2 16 -5 34 -1 4 -2 10 -3 13 0 2 -1 6 -2 8 -2 5 -7 36 -8 51 -1 8 -2 16 -3
17 -1 1 -1 4 -1 8 0 5 -1 10 -3 22 -1 3 -1 7 -2 10 0 2 -1 5 -2 5 0 1 -1 3 -1
5 0 6 -3 26 -6 38 -1 5 -2 11 -3 13 0 1 -1 4 -2 5 0 2 -1 3 -1 4 1 1 -2 19 -4
28 -4 10 -6 23 -7 31 0 4 -1 11 -1 16 -1 6 -2 11 -2 12 0 4 2 1 3 -5z m-14 1
c0 -1 0 -2 -1 -2 -1 0 -2 1 -2 2 0 3 2 2 3 0z m-307 -184 c4 -6 8 -12 9 -13 1
-2 2 -4 2 -4 0 -1 2 -4 4 -7 5 -9 16 -29 20 -36 2 -4 6 -12 9 -18 4 -7 10 -18
14 -26 l8 -14 -1 -7 c-1 -4 -2 -10 -3 -14 -1 -5 -2 -11 -3 -15 -1 -8 -6 -25
-8 -31 0 -2 -2 -10 -4 -17 -2 -8 -4 -16 -5 -19 -1 -4 -3 -12 -5 -18 -4 -14 -7
-25 -16 -50 -3 -11 -7 -21 -7 -23 -1 -5 -2 -9 -5 -15 -1 -3 -2 -6 -2 -6 1 -1
5 4 6 8 1 4 8 23 12 34 2 5 5 11 5 13 0 1 4 11 7 20 3 10 6 19 6 20 0 0 1 4 3
9 1 4 3 11 4 15 2 7 7 26 10 37 5 16 8 29 9 36 1 9 2 11 4 10 0 -1 4 -6 7 -13
3 -6 8 -14 10 -18 l4 -7 -3 -10 c-1 -6 -3 -14 -4 -18 -2 -11 -5 -20 -7 -26 -2
-6 -4 -14 -4 -16 0 -1 1 0 3 1 3 1 4 3 6 8 2 6 9 33 11 41 1 3 2 6 2 7 2 1 4
-1 10 -10 3 -6 3 -7 3 -14 0 -7 -3 -25 -7 -45 -1 -4 -2 -9 -3 -11 0 -2 -1 -6
-1 -8 -1 -1 -2 -6 -2 -10 -2 -10 -15 -59 -16 -64 -1 -2 -3 -8 -4 -14 -2 -5 -5
-16 -8 -25 -3 -9 -6 -18 -6 -20 -1 -2 -3 -10 -6 -16 -3 -7 -6 -17 -8 -21 -3
-7 -4 -10 -6 -10 -1 -1 -2 -2 -3 -3 0 -1 -1 -2 -1 -2 -1 0 -1 -4 0 -4 2 -2 5
3 11 14 3 7 7 15 8 19 0 3 2 6 2 8 1 1 3 5 4 9 1 3 4 13 7 20 3 7 7 20 9 28 2
8 5 16 5 17 1 1 2 7 4 14 2 6 4 14 5 18 2 7 10 38 13 54 1 5 3 12 4 16 1 4 2
9 2 12 1 3 2 7 2 8 1 2 2 4 2 5 0 2 2 1 4 -1 0 -1 4 -8 8 -15 l7 -14 -1 -8
c-1 -4 -3 -10 -4 -13 -1 -3 -3 -8 -4 -12 0 -4 -2 -10 -4 -13 -2 -7 -2 -10 0
-10 2 1 14 38 14 43 0 3 2 6 4 4 1 -1 9 -15 13 -21 0 -2 3 -6 5 -10 4 -9 4 -8
0 -24 -5 -18 -5 -18 -7 -15 -3 3 -4 1 -5 -13 -1 -12 -3 -24 -9 -46 -2 -5 -5
-13 -8 -20 0 -2 -3 -9 -6 -17 -2 -9 -7 -22 -10 -29 -3 -8 -6 -15 -6 -15 0 -2
3 -1 5 3 5 7 10 17 14 30 2 7 6 17 8 24 5 12 10 29 12 39 1 4 3 13 4 21 2 8 3
16 4 18 0 2 1 4 1 5 1 0 2 5 3 9 5 16 5 16 9 10 3 -4 17 -32 26 -51 7 -15 14
-28 20 -37 2 -4 4 -7 4 -9 1 -1 6 -9 12 -18 5 -9 11 -18 13 -21 1 -2 4 -7 6
-10 2 -3 9 -15 15 -27 5 -11 12 -23 13 -25 5 -8 7 -11 10 -17 1 -3 3 -7 4 -8
4 -5 6 -16 7 -25 0 -4 0 -8 0 -9 1 -4 2 -13 2 -24 0 -6 1 -17 1 -25 1 -9 2
-15 1 -15 -1 -1 -9 -1 -22 1 -12 1 -25 3 -30 3 -5 1 -13 1 -18 2 -5 1 -18 1
-28 2 -11 1 -22 2 -26 2 -4 1 -13 2 -20 3 -8 0 -17 0 -19 1 -3 0 -7 0 -8 0 -1
0 -8 1 -14 2 -14 1 -26 3 -46 4 -8 1 -16 1 -17 2 -2 0 -12 1 -22 1 -21 2 -34
3 -48 5 -5 1 -15 2 -23 2 -8 1 -19 2 -24 3 -20 2 -47 4 -69 5 -19 1 -24 2 -28
3 -2 1 -6 2 -10 2 -6 0 -48 3 -59 5 -4 1 -13 1 -20 2 -8 1 -16 1 -18 2 -14 1
-52 3 -63 4 -7 0 -16 0 -19 1 -13 2 -39 6 -49 7 -21 2 -53 4 -61 5 -5 0 -16 1
-24 1 -9 1 -29 2 -44 3 -27 1 -38 2 -77 4 -9 0 -22 1 -31 1 -9 0 -20 1 -26 1
-6 1 -18 1 -25 1 -7 1 -17 1 -20 2 -4 1 -13 1 -20 1 -8 0 -15 0 -16 1 -5 1 -3
3 4 5 3 1 13 5 22 10 8 4 15 7 16 7 0 -1 -2 -5 -7 -13 -2 -2 -2 -3 -1 -4 2 0
10 9 16 18 6 10 8 12 21 19 1 1 5 3 8 5 5 3 15 8 15 8 2 0 -3 -11 -8 -18 -1
-3 -1 -6 0 -6 1 0 3 1 4 3 1 1 3 4 4 6 2 2 3 4 3 4 0 2 6 14 9 17 0 1 4 4 9 7
4 3 10 6 13 8 9 6 10 4 2 -10 -3 -7 -9 -16 -11 -21 -13 -22 -18 -33 -10 -24 3
4 15 22 15 24 0 0 1 2 2 3 2 2 5 7 7 12 12 22 16 29 22 32 3 1 11 6 19 11 10
7 14 9 15 8 2 -1 0 -6 -3 -9 -1 -1 -2 -3 -2 -4 0 -3 -6 -15 -9 -18 0 -1 -2 -4
-2 -6 -1 -2 -3 -6 -5 -7 -1 -2 -4 -7 -6 -10 -2 -4 -4 -8 -5 -9 -1 -2 -3 -4 -3
-6 -2 -3 -2 -3 -1 -4 1 0 3 0 4 1 2 2 9 12 12 18 1 2 3 5 4 7 19 33 19 33 24
47 2 5 4 9 5 10 1 1 4 4 8 7 7 4 10 6 19 14 7 6 13 9 15 8 2 -2 1 -4 -1 -7 -1
-2 -3 -7 -3 -10 -1 -4 -2 -8 -3 -9 -1 -1 -4 -7 -6 -11 -2 -5 -4 -11 -5 -12 0
-1 -3 -7 -6 -14 -3 -6 -9 -16 -12 -22 -8 -11 -8 -13 -5 -13 3 0 4 1 12 13 7
11 24 46 24 49 0 1 2 5 4 9 2 3 4 8 4 10 1 6 7 26 7 27 1 1 3 2 4 3 2 2 9 6
16 11 24 18 26 19 26 15 0 -2 -8 -27 -11 -35 -1 -3 -2 -7 -2 -8 0 -1 -1 -3 -2
-5 -1 -2 -2 -6 -3 -8 -1 -2 -3 -9 -6 -15 -3 -7 -7 -16 -9 -22 -3 -6 -6 -14 -8
-19 -4 -8 -5 -10 -3 -10 1 0 15 28 15 30 0 1 11 25 14 30 1 2 2 6 3 9 1 2 3 8
5 12 3 9 9 26 10 33 2 10 5 18 7 19 1 0 5 3 10 6 5 4 13 10 19 14 6 4 15 11
21 15 13 12 24 19 25 19 2 0 2 -3 -1 -12 -2 -5 -4 -10 -4 -10 0 -1 -1 -3 -2
-4 0 -2 -2 -6 -3 -8 0 -3 -2 -9 -4 -13 -2 -4 -4 -10 -5 -14 -2 -7 -8 -23 -10
-29 -1 -3 -5 -12 -9 -21 -3 -10 -8 -22 -10 -27 -2 -5 -5 -13 -7 -17 -1 -4 -5
-12 -7 -18 -3 -7 -6 -14 -7 -16 -1 -2 -3 -8 -5 -12 -3 -7 -3 -9 -1 -8 2 0 15
26 17 31 3 8 7 20 8 21 2 2 4 7 10 22 9 24 16 42 18 47 2 2 4 9 5 14 1 5 3 11
4 12 1 3 6 18 8 27 1 4 3 8 4 10 0 1 2 6 3 11 1 5 3 11 4 14 2 4 3 7 3 7 0 2
20 19 24 22 1 0 5 3 9 6 13 12 29 24 43 35 8 7 21 17 28 23 7 6 16 13 19 15 3
3 7 6 10 9 3 2 7 5 9 7 2 1 8 6 14 11 5 4 12 10 16 13 19 15 37 31 41 36 1 1
3 2 3 2 1 0 12 9 26 23 7 6 16 15 21 20 6 4 17 16 26 24 9 9 17 16 17 16 1 0
32 31 32 32 0 1 1 1 2 1 1 0 4 -5 7 -12z m344 0 c2 -14 2 -15 1 -13 -1 1 -3 9
-4 19 0 5 0 5 1 3 1 -2 2 -6 2 -9z m66 -422 c1 -2 1 -5 0 -5 -2 1 -3 7 -1 7 0
0 1 -1 1 -2z m-99 -141 c1 -1 2 -4 3 -6 1 -2 3 -6 4 -8 2 -3 3 -5 3 -6 0 -2
16 -32 21 -39 3 -4 5 -8 5 -9 0 -3 -3 -3 -8 -2 -2 1 -7 1 -11 1 -10 0 -13 1
-15 4 0 1 -1 8 -2 15 -2 29 -3 36 -4 42 -2 11 0 13 4 8z m-730 -16 c1 -2 1 -4
-1 -4 -2 0 -5 3 -5 4 1 1 5 1 6 0z m49 -6 c8 -1 15 -2 15 -1 1 0 5 -1 9 -1 10
-2 25 -4 50 -5 11 -1 23 -1 28 -2 4 -1 16 -2 26 -3 10 -1 19 -3 21 -3 1 -1 5
-1 10 0 6 1 9 0 12 -1 2 0 6 -1 10 -1 3 0 7 0 10 -1 4 -1 30 -3 49 -3 11 -1
14 -1 14 -3 0 -1 -1 -3 -3 -5 -1 -2 -2 -5 -2 -7 -1 -3 -1 -4 -4 -5 -7 -3 -6
-8 1 -8 4 0 5 -1 7 -6 1 -4 1 -8 0 -10 -1 -2 -8 -7 -15 -10 -4 -2 -5 -3 -5 -6
0 -4 0 -4 -21 -8 -9 -1 -12 -1 -17 0 -8 1 -12 1 -30 -4 -14 -4 -16 -4 -19 -1
-4 3 -20 13 -26 16 -4 2 -7 4 -8 5 -3 3 -24 15 -28 16 -2 1 -5 2 -6 4 -2 2 -5
4 -8 4 -2 1 -4 3 -4 3 0 0 -1 1 -3 2 -1 0 -7 4 -11 7 -5 4 -10 7 -11 8 -1 0
-5 3 -8 6 -6 4 -8 5 -9 4 -1 -1 -1 -2 0 -3 2 -4 1 -4 -5 -1 -3 2 -7 3 -7 3 -1
0 -3 1 -5 3 -2 2 -4 3 -4 3 -1 0 -16 9 -20 12 -2 1 -2 3 1 3 2 0 9 -1 16 -1z
m-14 -10 c4 -2 8 -5 10 -6 1 0 5 -2 8 -4 2 -2 6 -4 8 -5 2 0 4 -2 5 -2 1 -2
17 -10 35 -19 4 -2 9 -4 10 -4 2 0 4 -1 7 -4 2 -2 4 -4 5 -4 1 0 2 -1 4 -2 1
-1 3 -2 4 -2 2 0 8 -4 13 -7 2 -2 5 -3 6 -3 0 0 2 -1 5 -3 2 -1 6 -4 9 -5 2
-2 8 -6 13 -9 4 -3 8 -5 9 -5 1 0 4 -4 4 -5 -1 0 -8 -3 -16 -5 -16 -6 -46 -17
-50 -20 -1 -1 -5 -3 -8 -4 -7 -4 -6 -5 -25 17 -5 6 -11 13 -14 16 -2 2 -4 5
-4 6 0 1 -2 3 -3 5 -4 3 -11 11 -18 20 -2 3 -5 6 -6 7 -1 0 -3 2 -4 4 -1 3 -3
6 -6 9 -10 12 -14 16 -15 18 -1 1 -3 4 -6 7 -2 3 -4 6 -4 7 0 0 3 1 6 1 4 1 6
2 8 3 2 3 3 3 10 -2z m293 -14 c3 -1 11 -2 17 -2 l11 -1 1 -6 c1 -5 1 -6 -2
-12 -2 -4 -3 -7 -3 -11 0 -6 0 -6 -4 -9 -2 -2 -5 -5 -7 -7 -1 -2 -3 -3 -4 -3
0 0 -2 2 -4 5 -3 4 -3 5 -2 8 1 2 2 6 2 8 1 4 1 5 -2 9 -2 3 -2 4 -1 7 1 5 0
8 -5 9 -4 0 -6 3 -5 5 1 1 1 1 8 0z m69 -6 c2 -1 6 -1 8 -1 2 1 8 1 14 0 5 -1
17 -2 26 -3 9 0 21 -2 27 -2 6 -1 16 -2 23 -2 6 -1 12 -2 14 -2 1 -1 5 -1 10
-2 4 0 12 0 17 -1 5 -1 15 -1 22 -2 6 0 12 -1 13 -1 1 -2 -4 -5 -7 -5 -4 0 -6
-2 -9 -8 -2 -7 -2 -7 -6 -6 -3 1 -4 1 -8 -1 -2 -1 -7 -4 -9 -5 -4 -3 -5 -3 -9
-3 -2 0 -10 0 -17 -1 -15 -1 -41 -3 -43 -3 -1 0 -9 -1 -19 -2 -14 -1 -19 -1
-20 0 -2 1 -4 1 -6 0 -5 -3 -17 -3 -20 0 -2 1 -4 2 -5 2 -2 0 -5 4 -5 7 0 1 2
4 3 6 5 5 6 12 4 19 -2 6 -6 10 -12 12 -8 3 -9 3 -10 1 -3 -2 -2 -5 3 -10 4
-3 5 -5 6 -8 1 -7 -4 -10 -9 -7 -2 2 -3 2 -6 1 -5 -1 -5 -1 -5 1 -1 2 1 8 3
11 2 2 2 2 1 5 -2 5 -1 6 4 8 8 4 18 5 27 2z m-83 -2 c0 -3 -3 -5 -6 -5 -4 0
-5 2 -2 5 2 3 7 2 8 0z m-291 -7 c3 -3 9 -11 14 -17 17 -21 19 -24 24 -30 4
-4 8 -9 11 -13 2 -3 8 -9 12 -14 13 -15 17 -20 17 -22 0 -1 -2 -3 -4 -4 -3 -1
-9 -5 -14 -8 -6 -4 -11 -6 -11 -6 -2 1 -7 10 -7 12 0 1 1 2 2 4 3 3 2 6 -1 8
-4 1 -11 10 -12 15 -1 3 -2 6 -3 7 -1 2 -5 12 -15 33 -3 5 -5 11 -6 13 -1 2
-3 6 -5 9 -5 5 -9 13 -9 17 0 4 2 3 7 -4z m298 -8 c2 -3 2 -6 2 -9 -1 -3 -1
-8 -1 -11 -1 -4 -1 -5 -6 -10 -4 -3 -8 -7 -10 -8 -2 -1 -5 -4 -8 -6 -5 -3 -8
-4 -7 -1 1 1 1 3 2 5 0 2 2 4 5 7 3 2 6 4 7 4 5 0 7 2 7 10 1 6 1 7 -1 9 -1 1
-2 4 -3 6 0 3 0 4 3 6 4 3 8 2 10 -2z m311 -5 c2 0 9 -1 17 -2 8 0 15 0 15 0
1 0 4 0 7 0 5 1 6 1 10 -1 8 -3 7 -4 -6 -6 -4 0 -8 -1 -10 -2 -3 0 -5 -1 -7
-3 -2 -2 -18 -10 -21 -10 -1 0 -3 1 -4 3 -3 2 -4 2 -11 2 -8 0 -9 0 -10 2 -1
3 -1 4 0 7 1 3 1 4 0 6 -1 2 -2 3 -1 4 0 1 18 1 21 0z m-44 -5 c6 -3 8 -5 8
-8 0 -2 -2 -3 -5 -2 -1 0 -4 1 -7 1 -6 1 -7 1 -9 -4 -2 -3 -5 -4 -6 -2 -1 1
-1 3 -1 5 0 3 1 5 4 8 5 5 6 6 16 2z m137 -7 c0 -3 3 -42 2 -45 0 -3 -4 -6
-18 -14 l-9 -5 -14 0 c-8 0 -32 0 -53 0 -22 0 -45 0 -51 -1 -7 -1 -13 -1 -14
-1 -4 0 -2 3 6 8 7 4 10 5 14 5 5 1 5 0 8 9 2 3 3 4 12 8 5 2 12 6 15 7 12 8
27 15 33 17 4 1 7 2 8 3 3 4 6 5 18 6 26 2 35 3 36 3 1 2 6 1 7 0z m25 -1 c5
-1 11 -2 14 -3 2 -1 8 -2 11 -3 6 0 8 -1 10 -3 5 -4 4 -6 -10 -13 -7 -3 -15
-8 -19 -10 -12 -7 -15 -8 -17 -8 -2 0 -3 5 -4 13 0 3 0 11 -1 16 0 13 -1 13
16 11z m600 -4 c27 0 47 0 52 -1 4 -1 7 -1 8 -1 1 1 41 -1 59 -2 10 0 13 0 19
0 1 0 10 0 20 -1 9 0 26 0 38 0 16 0 21 -1 21 -2 0 -1 -1 -1 -11 -3 -4 0 -13
-2 -21 -4 -8 -2 -16 -3 -18 -3 -3 0 -8 -1 -13 -2 -5 -1 -15 -3 -23 -4 -8 -1
-18 -3 -22 -4 -5 -1 -9 -2 -11 -2 -1 0 -6 -1 -11 -2 -5 0 -14 -2 -19 -3 -5 -1
-11 -2 -13 -2 -2 -1 -8 -1 -14 -2 -6 -1 -13 -1 -15 -2 -3 -1 -9 -1 -13 -2 -9
-1 -28 -4 -44 -8 -27 -6 -38 -8 -47 -8 -6 -1 -7 -1 -13 2 -5 4 -11 5 -20 6 -2
1 -7 2 -11 2 -11 3 -18 4 -27 4 -5 1 -12 2 -16 3 -4 1 -14 3 -21 4 -8 1 -17 3
-19 3 -3 0 -6 1 -7 0 0 0 -2 0 -4 1 -2 1 -7 1 -10 1 -23 2 -55 5 -60 6 -2 0
-7 0 -11 0 -3 1 -10 1 -14 2 -16 2 -33 3 -56 4 -13 0 -24 1 -25 1 -1 2 2 3 6
3 2 0 6 1 10 2 3 1 9 2 14 2 4 0 10 1 13 2 2 1 7 1 10 1 3 1 10 1 15 2 4 0 12
1 16 2 4 0 8 1 10 1 2 1 6 1 8 1 2 0 6 0 9 1 5 1 36 3 59 2 43 0 100 0 108 1
4 0 21 0 38 0 17 0 51 0 76 -1z m-973 -1 c2 -3 2 -3 1 -7 0 -3 -1 -6 -1 -7 0
-2 -3 -8 -6 -11 -4 -5 -13 -7 -17 -5 -1 1 -2 4 -6 19 0 1 1 3 2 4 3 3 3 3 10
2 l7 0 2 3 c2 2 4 4 4 4 1 0 2 -1 4 -2z m439 -9 c2 0 3 -2 4 -11 0 -4 1 -8 1
-9 0 -1 1 -2 0 -3 0 -1 -8 -5 -16 -9 -2 0 -6 -2 -9 -4 -3 -1 -6 -3 -7 -2 -1 0
-2 6 -4 18 -2 8 -1 9 6 13 4 2 4 2 6 0 1 -2 4 -1 5 4 1 2 2 4 2 4 1 1 8 0 12
-1z m-488 -2 c1 -2 1 -4 0 -4 0 -2 -11 -11 -16 -14 -8 -5 -23 -22 -22 -25 2
-2 5 -1 13 8 5 5 10 9 11 9 0 0 3 3 7 6 5 5 7 6 10 6 2 0 4 1 6 2 4 3 6 2 7
-3 0 -4 0 -4 -6 -8 -7 -5 -11 -13 -10 -20 1 -2 1 -4 0 -5 -4 -2 -9 -3 -22 -2
-16 0 -18 0 -18 -7 0 -6 -4 -7 -6 -1 -2 5 -4 6 -7 4 -6 -3 -3 -12 6 -18 4 -3
6 -6 4 -7 -1 -2 -28 1 -33 2 -3 1 -5 2 -5 4 0 2 0 2 9 4 9 2 9 5 1 7 -5 0 -6
3 -1 4 4 1 5 4 5 8 -1 2 0 4 4 8 4 5 6 6 10 8 7 1 7 2 16 10 10 9 32 26 34 26
1 0 2 -1 3 -2z m292 -3 c0 -2 -5 -4 -6 -2 -1 0 -1 2 -1 2 1 3 7 3 7 0z m988 1
c0 -2 -13 -7 -36 -15 -3 -1 -7 -3 -8 -4 -2 0 -7 -2 -12 -4 -9 -3 -23 -9 -34
-14 -4 -1 -11 -4 -17 -6 -6 -2 -11 -5 -13 -5 -1 -1 -13 -6 -26 -11 -14 -6 -26
-11 -28 -12 -4 -2 -27 -11 -44 -18 -4 -2 -11 -4 -15 -6 -18 -7 -26 -10 -32
-12 -8 -2 -17 -6 -41 -14 -8 -3 -15 -6 -16 -6 -2 0 -3 2 -3 8 0 2 -1 7 -1 9
-1 2 -2 8 -2 13 -1 5 -3 11 -3 13 -1 2 -2 7 -2 10 0 5 0 6 2 6 10 1 23 3 31 6
4 1 7 2 9 2 1 -1 5 0 8 0 2 1 6 2 8 2 1 0 4 0 6 1 1 1 6 2 11 3 11 1 14 2 27
5 5 1 13 3 17 4 4 0 12 2 18 3 6 2 16 4 23 6 14 3 27 6 36 9 4 1 9 2 11 2 1 0
7 1 13 3 5 1 12 3 15 3 2 0 6 2 8 2 2 1 5 2 7 2 1 0 7 1 13 3 5 1 11 2 13 3 2
0 3 1 4 1 0 1 3 1 6 1 3 0 8 1 11 2 4 0 11 2 16 3 9 3 20 4 20 2z m-1009 -7
c0 -5 -1 -7 -2 -7 -2 -1 -5 1 -6 4 -1 1 -3 3 -3 3 -1 1 -2 2 -2 3 0 3 2 4 7 4
l6 0 0 -7z m-73 3 c0 0 -1 -3 -4 -5 -2 -3 -4 -5 -5 -6 0 -2 -2 -3 -6 -3 -10
-2 -42 -4 -53 -4 -6 0 -17 0 -24 -1 -9 -1 -14 -1 -14 0 -2 1 -3 8 -2 10 1 3 9
7 12 6 1 -1 4 -1 7 0 3 1 8 1 11 1 3 0 9 0 13 1 8 1 34 3 54 3 8 0 10 0 11 -2z
m-134 -1 c0 -1 2 -2 5 -4 7 -3 9 -5 9 -10 0 -3 1 -6 4 -22 2 -8 0 -8 -14 -9
-13 -1 -15 -1 -16 -1 0 1 1 3 3 7 6 9 7 14 7 21 0 5 -1 7 -2 7 -3 0 -4 -1 -5
-7 -1 -9 -5 -17 -10 -23 l-5 -5 -9 0 c-16 2 -16 2 -19 7 -1 3 -2 6 -2 7 0 4 6
13 8 13 3 0 5 -5 4 -9 0 -5 1 -7 6 -9 6 -2 7 -1 8 2 2 4 2 4 0 6 -1 1 -2 3 -3
5 -1 3 -1 3 1 4 2 1 4 2 6 2 3 1 12 9 13 14 1 4 9 7 11 4z m156 -5 c1 -1 1 -2
-1 -4 -1 -2 -2 -2 -7 -2 -4 0 -6 1 -6 1 0 1 1 2 3 4 4 2 9 3 11 1z m-267 -3
c1 -2 -3 -8 -7 -10 -2 0 -5 -2 -8 -3 -3 -2 -4 -2 -7 -1 -3 1 -5 1 -7 0 -1 0
-3 -1 -4 -1 -1 0 -4 -2 -6 -3 -5 -4 -8 -5 -9 -3 -1 0 -5 3 -10 6 -11 6 -15 8
-14 10 1 2 2 2 6 2 3 -1 14 0 24 1 l19 1 2 -2 c2 -2 4 -4 6 -4 3 -2 3 -2 5 0
1 1 2 3 2 4 -1 1 0 3 0 4 2 2 7 1 8 -1z m694 -2 c1 -1 -4 -3 -11 -3 -9 -1 -12
-2 -12 -3 0 -1 1 -1 2 0 1 0 3 0 5 0 2 0 11 1 20 2 23 3 25 3 42 2 10 -1 16
-2 18 -1 2 1 3 1 6 -2 3 -1 4 -3 3 -3 0 -1 -5 -2 -9 -2 -5 -1 -13 -3 -18 -4
-6 -1 -12 -2 -14 -2 -6 -1 -15 -3 -20 -4 -6 -1 -23 -4 -30 -4 -3 -1 -9 -2 -13
-3 -10 -3 -23 -4 -25 -3 0 1 -1 2 -1 4 0 1 -1 4 -2 7 -1 2 -2 5 -2 6 1 1 12 3
27 5 3 0 5 1 5 1 0 1 -9 1 -14 0 -16 -4 -19 -4 -23 -3 -3 1 -3 1 -6 -1 -1 -2
-3 -3 -4 -4 -2 0 -2 0 1 -1 4 -1 5 -2 1 -4 -3 -3 -5 -8 -5 -13 1 -5 0 -6 -11
-7 -15 -2 -23 -3 -27 -4 -2 -1 -6 -2 -8 -2 -3 0 -5 0 -6 -1 0 0 -5 -1 -10 -2
-6 -1 -13 -3 -16 -4 -3 -1 -8 -2 -11 -3 -4 -1 -8 -2 -10 -3 -1 0 -3 -1 -4 -1
-1 0 -1 0 -1 -1 0 -2 16 0 25 4 2 1 11 3 20 4 9 1 17 3 18 3 3 1 4 2 25 5 7 1
14 3 15 3 3 2 16 3 18 2 3 -1 5 -1 7 2 0 2 2 3 9 4 9 1 24 4 30 5 2 1 9 1 13
2 5 1 10 2 11 2 2 1 7 2 21 4 4 1 11 2 15 3 3 1 9 2 13 2 4 0 10 1 14 2 23 5
25 5 40 4 19 -2 26 -3 21 -6 -1 0 -10 -2 -20 -4 -10 -2 -19 -3 -19 -4 -1 0 -4
-1 -8 -1 -12 -2 -21 -3 -32 -4 -6 -1 -11 -2 -11 -2 -1 -1 -4 -1 -6 -1 -3 0
-10 -1 -16 -2 -5 -2 -12 -3 -14 -3 -2 0 -8 -1 -13 -2 -5 -1 -15 -3 -22 -4 -12
-2 -29 -6 -36 -8 -2 -1 -8 -2 -13 -2 -5 -1 -12 -2 -14 -3 -3 -1 -9 -2 -14 -3
-5 -1 -9 -2 -10 -2 -2 -1 -5 -2 -9 -3 -8 -1 -17 -3 -27 -6 -5 -2 -11 -3 -13
-4 -7 -2 -11 -4 -11 -6 0 -1 1 -1 5 -1 2 1 5 1 5 2 1 0 4 1 8 2 4 1 9 3 12 3
2 1 9 3 14 4 6 2 12 4 15 4 2 0 7 2 10 2 3 1 8 2 11 3 10 2 24 5 25 6 1 0 4 1
6 1 3 0 8 1 10 2 3 1 8 2 11 3 3 1 8 2 12 2 4 1 9 1 12 2 3 1 8 1 11 1 3 1 6
1 7 1 1 1 4 2 7 2 4 0 10 2 14 2 4 1 9 2 11 2 2 -1 4 -1 5 0 3 2 16 4 27 5 12
1 27 3 39 6 4 0 10 1 13 2 3 1 8 2 12 3 4 0 10 1 14 2 3 1 9 1 12 2 5 1 13 1
29 -2 7 -2 11 -3 8 -4 -6 -2 -15 -4 -20 -5 -4 0 -10 -1 -12 -1 -8 -1 -25 -4
-43 -7 -3 0 -8 -1 -10 -2 -2 -1 -7 -2 -10 -2 -4 0 -8 -1 -10 -2 -2 0 -8 -2
-13 -2 -13 -3 -20 -4 -27 -6 -4 -1 -13 -3 -21 -4 -8 -1 -17 -3 -20 -4 -4 0
-12 -2 -19 -4 -7 -2 -15 -4 -19 -4 -4 -1 -13 -3 -20 -5 -25 -7 -34 -8 -37 -7
-2 1 -2 1 -4 -1 -2 -1 -6 -3 -9 -4 -3 0 -7 -2 -9 -2 -1 -1 -6 -2 -10 -3 -11
-2 -15 -3 -14 -4 0 -1 15 -1 17 0 3 2 19 6 22 6 1 0 5 1 8 2 6 2 20 6 23 6 2
0 23 5 40 9 5 2 18 4 24 5 3 0 8 2 12 3 7 2 17 4 28 5 7 0 13 1 26 4 4 1 12 2
17 2 11 2 23 4 30 7 3 1 6 1 7 1 1 0 17 2 30 5 3 0 7 1 8 1 1 0 3 0 6 1 4 1
10 2 29 4 6 1 14 2 17 3 4 1 9 1 10 0 2 0 4 0 5 1 1 0 2 0 4 0 1 -1 4 -1 6 -1
3 0 5 -1 6 -1 1 -1 5 -2 10 -3 12 -2 16 -5 8 -7 -3 0 -6 -1 -7 -2 -1 -1 -3 -1
-4 0 -2 1 -4 1 -9 0 -7 -1 -7 -1 -10 1 -2 2 -3 2 -12 2 -10 -1 -33 -5 -33 -6
0 -1 7 -4 10 -4 2 0 4 0 5 -1 1 -1 1 -1 -1 -3 -2 -2 -3 -2 -8 -2 -3 1 -6 1 -7
0 -2 -1 -8 -3 -12 -4 -6 0 -9 1 -8 5 0 3 -2 3 -9 2 -13 -2 -27 -5 -30 -6 -3 0
-8 -2 -11 -2 -4 -1 -11 -3 -15 -3 -4 -1 -12 -3 -17 -4 -5 -1 -17 -4 -25 -6 -9
-2 -19 -4 -21 -4 -3 -1 -7 -1 -9 -2 -2 -1 -7 -2 -12 -2 -5 -1 -12 -2 -16 -3
-4 0 -11 -1 -16 -2 -5 0 -13 -1 -19 -2 -12 -2 -52 -6 -73 -8 -9 -1 -18 -2 -21
-2 -3 -1 -7 -1 -8 -1 -3 0 -17 -1 -31 -2 -6 -1 -15 -1 -20 -1 -6 -1 -16 -1
-22 -2 -14 0 -14 -1 -15 12 -1 5 -1 13 -2 18 -1 10 0 12 5 15 2 1 8 4 12 7 5
3 12 7 15 9 9 5 15 9 19 13 3 3 21 13 24 13 1 0 5 1 9 3 9 4 15 5 15 3 -1 -2
-12 -10 -23 -17 -5 -2 -11 -6 -14 -8 -4 -3 -9 -6 -13 -8 -14 -7 -29 -18 -29
-21 0 -2 3 -4 6 -4 1 0 2 1 3 3 3 6 15 16 19 15 2 -1 4 0 7 2 4 3 15 7 32 13
3 1 8 3 10 3 2 1 12 4 23 6 10 3 20 6 22 6 4 1 6 3 5 4 -1 0 -25 -6 -39 -10
-20 -6 -22 -7 -26 -7 -6 -1 -3 2 6 7 4 2 10 6 11 7 3 4 17 10 28 13 4 2 13 3
18 4 6 1 11 1 12 2 5 2 74 2 76 0z m-208 -4 c1 0 1 -3 1 -4 0 -3 2 -15 4 -20
0 -1 0 -3 -3 -5 -2 -2 -4 -3 -5 -3 -3 0 -4 2 -4 18 0 9 0 12 1 14 2 2 5 3 6 0z
m-560 -7 c20 -13 21 -14 22 -21 1 -2 2 -4 4 -7 4 -4 4 -4 -6 -10 -9 -4 -10 -5
-10 -7 0 -3 7 -6 12 -6 3 0 5 0 6 -1 1 -1 18 -7 23 -7 3 -1 8 -1 11 -2 4 0 11
-1 17 -2 10 0 12 -1 18 -4 4 -2 7 -4 8 -5 2 -1 5 -3 9 -4 3 -2 7 -4 9 -4 1 -1
5 -2 9 -3 5 -1 6 -1 8 0 3 1 4 4 2 6 -1 0 -5 2 -8 3 -8 1 -17 5 -18 7 -2 3 1
3 12 2 6 -1 13 -1 17 -2 4 0 12 0 19 -1 7 0 24 -1 42 0 16 0 38 0 48 0 12 0
18 1 20 2 1 1 3 1 4 1 1 -1 3 -1 5 0 3 1 5 1 8 0 3 -1 11 -1 18 -1 13 0 14 -1
17 -3 2 -2 4 -3 10 -3 10 -2 16 -1 23 0 3 1 8 2 12 2 3 0 12 1 20 2 7 0 18 1
24 1 6 0 12 0 15 1 2 1 13 1 25 2 12 0 23 0 24 1 1 0 7 0 13 0 6 -1 15 -1 21
-1 l11 0 2 -7 c0 -4 1 -10 1 -13 0 -6 0 -7 -2 -8 -1 0 -7 -1 -13 -1 -6 0 -15
0 -18 -1 -8 -1 -33 -2 -71 -3 -13 0 -33 -1 -45 -1 -13 -1 -25 -1 -27 -1 -7 0
-127 1 -140 1 -6 0 -21 1 -33 1 l-21 0 -2 3 c-1 2 -2 5 -2 7 0 3 0 4 -2 4 -1
0 -3 -1 -5 -2 -2 -1 -3 -2 -4 -6 0 -4 -1 -5 -3 -6 -2 -1 -56 0 -75 2 -20 1
-41 4 -53 6 -6 1 -14 3 -19 3 -26 3 -39 4 -48 6 -6 1 -14 3 -18 3 -42 5 -52 9
-55 20 -1 3 -1 4 0 6 2 3 9 9 15 12 1 1 5 3 7 5 3 2 5 3 6 2 1 0 2 -2 3 -4 1
-3 1 -3 -1 -7 -2 -4 -2 -6 1 -13 3 -7 16 -11 21 -6 4 3 1 17 -5 20 -2 1 -4 2
-4 2 -2 0 -6 5 -7 10 0 3 2 7 5 7 1 0 2 1 4 2 6 4 36 15 56 21 2 1 7 3 11 4 3
1 6 1 7 1 1 0 5 -3 10 -5z m311 1 c2 -2 1 -3 -10 -3 -12 0 -12 0 -10 1 0 1 3
1 5 1 3 0 6 0 8 1 4 1 6 1 7 0z m-25 -3 c0 0 0 -1 -1 -1 -2 -1 -10 -1 -10 -1
0 1 1 2 3 2 2 2 6 2 8 0z m-15 -2 c-1 -1 -3 -1 -4 -1 -2 0 -5 0 -7 -1 -2 0
-11 -2 -20 -2 -10 -1 -19 -2 -21 -3 -3 0 -4 0 -4 1 1 2 5 3 20 5 6 0 11 1 13
1 4 1 23 1 23 0z m267 -2 c0 -1 1 -5 1 -8 0 -5 0 -6 3 -9 1 -1 3 -3 5 -4 1 -1
1 -1 0 -3 -1 -2 -10 -8 -12 -8 -2 0 -3 5 -4 19 0 12 0 13 2 15 2 2 4 1 5 -2z
m-184 0 c2 0 4 -1 4 -2 0 -1 -5 -5 -7 -5 -1 0 -2 -1 -3 -2 -1 -1 -5 -3 -7 -5
-3 -2 -6 -4 -7 -5 -2 -2 -6 -2 -33 -2 -31 -1 -47 -2 -71 -5 -8 -1 -14 -1 -15
-1 -1 1 0 15 1 16 1 1 12 3 19 3 4 0 10 0 15 1 17 2 55 5 71 5 14 1 23 2 24 3
0 1 1 1 2 1 2 -1 4 -1 7 -2z m996 1 c0 -1 -2 -2 -5 -4 -2 -2 -6 -4 -8 -5 -2
-1 -9 -5 -15 -9 -6 -3 -14 -8 -18 -10 -4 -2 -11 -7 -17 -10 -7 -3 -12 -7 -13
-8 -1 0 -2 -1 -2 -1 -2 0 -25 -14 -34 -20 -5 -3 -9 -5 -10 -5 0 0 -2 -1 -4 -2
-2 -2 -5 -3 -6 -3 -2 -1 -13 -8 -30 -19 -4 -2 -11 -7 -17 -11 -6 -3 -13 -8
-14 -9 -2 -2 -5 -3 -7 -4 -2 -1 -9 -5 -15 -9 -10 -7 -41 -24 -46 -26 -2 -1 -4
1 -5 7 0 3 -2 10 -3 16 -3 13 -3 17 -3 20 1 2 3 4 9 7 5 2 9 4 10 4 1 0 2 1 4
1 2 2 14 7 20 9 2 1 4 2 5 2 0 1 1 1 2 1 1 0 3 1 4 3 2 1 4 2 5 1 1 0 4 1 8 2
3 2 7 3 9 3 1 1 5 2 9 4 3 2 8 4 12 5 3 0 9 3 13 4 3 2 12 6 19 8 7 3 16 7 20
8 7 3 8 4 23 11 5 2 17 7 27 11 10 4 21 8 23 10 3 1 7 3 8 3 1 0 5 2 8 3 2 1
9 4 15 6 6 2 12 5 13 5 3 2 6 2 6 1z m-828 -12 c1 -3 1 -9 2 -15 l1 -11 -4 -5
c-3 -3 -4 -4 -7 -4 -5 0 -6 2 -6 9 1 4 2 6 4 8 3 3 3 3 2 7 -2 7 -1 11 1 13 3
3 6 2 7 -2z m-106 -12 c2 -1 3 -4 5 -15 2 -13 3 -12 -6 -13 -5 -1 -8 -1 -8 0
-1 1 -2 7 -2 15 0 13 0 13 2 14 3 1 6 0 9 -1z m65 0 c1 0 1 -5 0 -11 0 -13 -1
-14 -10 -14 -5 0 -7 0 -8 1 -2 4 0 19 3 22 2 2 4 3 9 3 3 -1 6 -1 6 -1z m17
-1 c2 -1 1 -5 -2 -12 -2 -4 -3 -8 -3 -9 0 0 -1 -1 -2 -2 -2 -1 -3 -1 -4 1 -2
2 -2 3 -2 9 1 4 1 8 1 10 1 2 1 4 2 4 1 1 8 0 10 -1z m-113 0 c0 -1 1 -4 1 -8
0 -4 1 -8 2 -10 2 -4 5 -6 4 -2 -1 1 -1 6 -2 10 0 7 0 8 2 10 2 1 7 1 7 0 1 0
1 -4 2 -9 0 -5 0 -9 1 -11 0 -1 -1 -3 -3 -5 -4 -3 -8 -5 -14 -5 l-5 0 -2 7
c-2 15 -3 19 -2 20 0 0 0 2 0 3 1 1 7 2 9 0z m53 0 c1 -2 1 -23 0 -25 -1 0 -3
-1 -6 -1 -4 0 -4 0 -5 4 -1 2 -2 7 -2 12 -2 10 -1 11 7 11 3 0 5 -1 6 -1z m20
-3 c0 -7 -2 -20 -2 -21 -1 0 -3 -1 -6 -1 -6 -1 -7 0 -7 8 0 6 2 16 3 17 1 1 4
1 7 1 l6 0 -1 -4z m-327 -4 c-1 -6 -3 -11 -4 -11 0 0 -1 -1 -2 -3 l-2 -3 -10
0 c-12 0 -13 1 -15 6 0 2 -2 4 -3 5 -4 1 -7 6 -6 7 0 1 3 1 6 0 3 -1 7 -1 11
0 3 0 6 0 7 0 5 -2 7 -1 11 2 3 3 4 4 6 3 1 -1 1 -3 1 -6z m238 -3 c0 -5 0
-12 -1 -15 l-1 -6 -4 0 -3 0 -1 10 c-1 5 -1 12 -2 14 -2 5 0 7 8 7 l4 0 0 -10z
m-201 2 c1 -1 3 -3 4 -4 2 -1 2 -1 0 -5 -1 -2 -4 -5 -6 -7 -3 -2 -4 -2 -8 -2
-7 0 -9 1 -10 3 0 3 -2 4 -5 4 -3 0 -5 2 -4 6 1 3 7 6 12 6 2 0 5 1 7 1 4 2 5
2 10 -2z m169 1 c2 -2 2 -3 2 -8 0 -2 -1 -5 -1 -6 -1 0 -11 -1 -24 -1 -13 -1
-32 -1 -42 -2 -10 -1 -25 -1 -34 -1 -9 -1 -24 -1 -35 -2 -20 -1 -24 -1 -24 3
0 1 2 3 5 6 5 4 6 4 13 5 4 0 11 1 16 2 20 4 41 6 82 6 38 0 40 -1 42 -2z
m578 -9 c1 -1 1 -1 -2 -4 l-3 -3 -8 1 c-7 0 -8 1 -8 2 0 1 2 2 6 2 2 1 6 1 9
2 2 0 4 1 4 1 0 0 1 0 2 -1z m-50 -39 c-1 -4 -2 -4 -3 -1 0 2 1 4 2 4 1 0 1
-1 1 -3z m154 -71 c0 -1 0 -2 -1 -2 -1 -1 -3 1 -3 2 1 1 4 1 4 0z m34 -35 c-1
-1 -5 -2 -8 -3 -4 -1 -8 -1 -8 -2 -1 0 -2 0 -2 1 0 3 7 5 13 5 6 0 6 0 5 -1z"/>
<path d="M788 1766 c0 -1 -3 -6 -5 -10 -3 -5 -7 -11 -9 -13 -1 -2 -3 -5 -3 -5
0 -1 -2 -4 -4 -7 -2 -3 -4 -8 -4 -10 -1 -1 -3 -5 -5 -7 -11 -14 -12 -16 -12
-20 0 -3 -1 -5 -5 -10 -3 -3 -6 -6 -7 -8 -1 -3 -11 -14 -13 -14 0 0 -2 -1 -2
-2 -2 -4 -12 -15 -18 -21 -3 -2 -7 -6 -9 -9 -3 -2 -6 -4 -8 -6 -1 -1 -4 -3 -6
-6 -4 -4 -10 -6 -14 -4 -2 1 -3 1 -7 -1 -4 -2 -6 -4 -7 -5 -1 -2 1 -6 4 -8 4
-3 7 -3 10 0 2 2 8 6 11 6 1 0 13 10 14 12 1 0 2 1 2 1 2 0 14 12 32 30 6 7
12 12 12 12 0 0 1 1 2 3 1 2 3 6 6 8 5 6 8 13 8 16 -1 2 1 5 5 5 2 0 3 1 4 5
1 2 2 5 2 5 3 1 6 6 6 8 -1 1 1 5 5 10 4 6 6 10 6 12 0 1 2 6 5 11 9 16 10 18
10 20 -1 3 -4 4 -6 2z"/>
<path d="M792 1705 c-1 -1 -7 -11 -12 -22 -6 -11 -13 -24 -15 -28 -5 -6 -11
-13 -13 -13 -1 0 -2 -1 -2 -3 -1 -2 -4 -5 -7 -8 -2 -3 -4 -6 -4 -7 0 -1 -7 -9
-9 -9 0 0 -4 -4 -9 -8 -4 -5 -11 -12 -16 -17 -5 -4 -10 -9 -11 -11 -2 -2 -4
-2 -7 -2 -5 0 -6 -3 -3 -7 1 -1 3 -3 3 -3 0 0 2 1 5 2 3 1 6 2 7 2 1 0 5 3 10
7 4 4 8 8 9 8 2 1 21 21 21 22 0 1 2 3 4 5 5 5 9 11 13 16 1 2 3 5 4 6 2 1 4
5 5 7 2 3 5 7 7 10 1 2 3 5 4 6 0 1 1 4 3 7 3 4 3 5 11 23 6 12 7 17 5 18 -1
1 -2 0 -3 -1z"/>
<path d="M814 1670 c-2 -1 -5 -8 -12 -26 -2 -5 -6 -13 -10 -19 -3 -5 -6 -10
-6 -11 0 -1 -5 -9 -9 -13 -1 -2 -4 -6 -6 -9 -2 -3 -4 -5 -4 -5 0 0 -1 -1 -2
-3 -3 -5 -10 -13 -22 -26 -12 -11 -20 -17 -24 -17 -2 0 -3 -1 -4 -1 -1 -2 0
-3 2 -5 4 -5 5 -5 10 -2 1 1 4 3 6 4 2 1 5 3 7 5 2 2 4 4 5 4 1 0 24 24 29 32
1 2 4 5 5 7 1 1 3 2 3 4 1 1 3 4 5 6 1 2 4 6 5 9 1 2 2 4 3 5 0 1 2 4 4 8 2 4
4 8 5 9 6 11 17 40 16 43 -1 3 -3 4 -6 1z"/>
<path d="M664 1663 c-8 -6 -15 -12 -16 -12 -1 0 -3 -2 -5 -4 -3 -2 -6 -4 -7
-4 -1 -1 -3 -2 -4 -4 -1 -2 -4 -4 -6 -5 -5 -1 -6 -2 -3 -4 1 -2 8 -1 12 2 2 1
6 3 8 5 3 3 7 6 10 9 3 2 7 5 9 7 2 2 5 4 6 5 2 2 2 2 1 4 -1 3 -2 4 -5 1z"/>
<path d="M828 1622 c-1 -1 -3 -6 -4 -9 -2 -6 -3 -7 -5 -8 -2 -1 -3 -2 -2 -4 0
-3 -1 -5 -3 -9 -10 -18 -16 -30 -22 -37 -1 -3 -3 -5 -3 -6 0 -2 -7 -11 -12
-16 -3 -3 -5 -6 -5 -7 0 0 -2 -2 -4 -4 -3 -2 -5 -4 -6 -5 -1 -4 -8 -11 -11
-11 -2 0 -6 -3 -6 -5 0 -2 4 -4 7 -4 4 -1 4 -1 15 10 6 6 13 14 17 19 3 4 7
10 9 12 2 3 4 6 5 7 1 2 4 7 7 12 10 16 26 51 28 60 0 3 0 5 -1 6 -2 3 -3 2
-4 -1z"/>
<path d="M844 1588 c-2 -3 -6 -14 -6 -16 0 -1 -2 -4 -4 -7 -2 -3 -4 -7 -5 -9
0 -2 -2 -5 -3 -7 -1 -1 -4 -7 -6 -12 -3 -5 -6 -11 -7 -12 -2 -1 -3 -4 -4 -6
-3 -5 -10 -15 -15 -21 -3 -4 -8 -10 -11 -15 -6 -7 -12 -14 -14 -14 -2 0 -1 -4
1 -6 l2 -2 3 2 c2 2 4 3 4 3 2 0 11 9 14 14 3 5 7 11 12 17 7 8 8 9 14 20 3 6
6 12 7 14 2 1 3 4 4 6 1 3 3 9 6 14 10 20 15 35 13 38 -2 2 -4 1 -5 -1z"/>
<path d="M861 1533 c0 -1 -2 -5 -3 -10 -4 -9 -4 -9 -7 -9 -3 0 -5 -1 -7 -7 -1
-3 -3 -7 -5 -10 -1 -2 -4 -7 -6 -11 -2 -4 -6 -11 -8 -15 -3 -5 -7 -10 -8 -12
-1 -3 -5 -7 -8 -11 -7 -6 -7 -6 -6 -8 3 -4 4 -5 8 -2 1 1 4 2 5 2 1 0 2 1 3 3
1 2 3 4 5 5 2 1 3 2 3 4 0 1 1 2 2 3 0 1 1 2 1 3 0 0 3 7 7 15 4 8 9 17 10 21
2 4 5 8 7 10 2 2 3 5 4 7 1 3 2 7 3 9 2 6 4 14 2 14 0 0 -1 0 -2 -1z"/>
<path d="M868 1480 c-1 -1 -2 -2 -2 -2 0 -2 -5 -11 -6 -13 -1 -1 -2 -3 -2 -4
-2 -6 -14 -29 -19 -34 -1 -3 -3 -6 -4 -7 -1 -2 -4 -6 -6 -8 -5 -6 -5 -10 -2
-12 5 -3 5 -3 14 8 1 2 4 6 6 10 2 4 5 7 5 8 1 1 2 2 2 4 0 1 2 5 4 10 2 4 4
8 4 8 0 1 1 3 2 5 3 6 10 25 10 27 -1 1 -3 1 -6 0z"/>
<path d="M889 1440 c-3 -5 -6 -11 -7 -15 -2 -6 -11 -24 -14 -29 -1 -1 -4 -5
-6 -9 -2 -4 -5 -7 -7 -8 -3 -2 -4 -5 -1 -8 2 -3 4 -3 13 4 6 5 7 6 9 11 0 3 3
8 5 12 2 3 4 7 4 7 0 1 1 4 3 7 7 16 12 32 10 35 -2 3 -4 2 -9 -7z"/>
<path d="M911 1411 c-3 -2 -5 -11 -4 -15 0 -1 1 -3 2 -3 1 0 6 12 7 17 0 3 0
3 -2 3 -1 0 -3 -1 -3 -2z"/>
<path d="M894 1370 c-3 -5 -15 -20 -16 -20 -2 0 -3 -4 -2 -6 2 -3 5 -3 9 -1 5
4 9 8 11 15 1 3 2 7 3 8 1 1 2 4 2 6 1 1 1 2 0 1 0 -2 -3 -1 -3 1 0 2 -2 1 -4
-4z"/>
<path d="M926 1363 c-7 -13 -13 -25 -18 -31 -3 -4 -4 -7 -2 -9 5 -4 16 9 27
34 2 5 4 10 4 11 0 2 -3 6 -5 6 0 0 -3 -5 -6 -11z"/>
<path d="M950 1350 c-1 -2 -3 -7 -5 -11 -2 -4 -4 -8 -5 -9 0 -1 -1 -2 -1 -3 0
-2 -6 -15 -9 -19 -1 -2 -2 -5 -2 -7 0 -2 0 -3 3 -4 3 0 7 3 8 9 1 2 3 7 4 10
3 5 7 14 11 30 2 7 0 9 -4 4z"/>
<path d="M961 1309 c-2 -5 -4 -10 -5 -13 -1 -2 -2 -5 -4 -8 -2 -5 -3 -9 -1
-11 2 -1 5 3 11 19 7 18 7 20 5 21 -2 0 -3 -2 -6 -8z"/>
<path d="M986 1286 c-1 -2 -1 -4 0 -4 1 0 2 2 2 4 0 1 -1 1 -2 0z"/>
<path d="M1220 1273 c-1 -1 0 -9 2 -17 2 -8 4 -19 5 -25 0 -7 2 -14 2 -17 1
-4 2 -11 3 -15 1 -5 2 -13 3 -17 0 -4 1 -9 1 -11 0 -3 0 -6 1 -8 1 -4 1 -4 4
-4 4 1 5 3 3 7 -1 2 -2 7 -3 11 0 3 -1 9 -2 13 -2 7 -4 16 -5 23 0 2 0 5 -1 6
-1 1 -1 4 -1 7 0 2 -1 8 -2 13 -1 5 -2 11 -3 15 -2 9 -5 19 -6 20 0 0 -1 -1
-1 -1z"/>
<path d="M1247 1242 c0 -1 1 -6 2 -12 2 -5 4 -12 4 -16 0 -3 2 -11 3 -17 2 -6
4 -17 5 -24 2 -13 6 -38 8 -45 1 -5 4 -5 7 -1 1 2 2 4 2 8 0 5 0 6 -3 8 -3 3
-4 5 -5 10 0 3 -2 13 -4 22 -2 9 -3 20 -4 24 -1 3 -2 9 -3 13 0 3 -2 10 -3 16
-1 5 -3 11 -3 12 -1 3 -5 4 -6 2z"/>
<path d="M1549 843 c-2 -1 -1 -5 3 -15 3 -10 9 -21 13 -24 2 -2 5 -2 5 0 0 1
-3 6 -6 12 -6 11 -10 20 -10 24 0 1 -2 4 -3 4 0 0 -1 0 -2 -1z"/>
<path d="M1597 776 c-3 -2 4 -14 7 -13 3 1 2 3 -1 8 -4 5 -5 7 -6 5z"/>
<path d="M476 1492 c-1 -12 -2 -26 -1 -28 1 -4 2 -1 3 9 1 12 0 17 -1 18 -1 1
-1 1 -1 1z"/>
<path d="M497 1477 c0 -1 -1 -12 -1 -24 -1 -12 -2 -26 -2 -30 -2 -10 -7 -34
-10 -42 0 -3 -1 -6 -1 -7 0 -5 5 0 6 6 0 2 1 7 2 11 4 11 7 25 8 34 1 4 1 10
2 13 1 7 0 39 -2 40 -1 1 -1 1 -2 -1z"/>
<path d="M499 1291 c-2 -7 -2 -8 -1 -8 2 0 3 5 3 9 0 1 -1 1 -2 -1z"/>
<path d="M161 547 c-1 -2 -1 -3 -1 -4 1 0 3 4 3 6 0 1 -1 0 -2 -2z"/>
<path d="M1204 849 c0 -1 1 -5 2 -8 0 -3 1 -6 0 -7 0 -2 0 -5 1 -8 3 -10 9
-37 10 -48 1 -3 2 -9 2 -11 1 -3 2 -10 3 -15 0 -5 1 -11 1 -12 2 -6 4 -19 5
-28 0 -7 0 -14 1 -17 1 -4 1 -9 2 -13 0 -12 0 -13 1 -12 1 0 1 4 1 12 -2 36
-3 46 -5 52 0 4 -1 9 -1 12 -1 3 -2 10 -3 15 -1 4 -3 13 -4 18 -1 8 -2 11 -6
31 -3 16 -8 36 -9 40 -1 1 -1 1 -1 -1z"/>
<path d="M1249 770 c0 -5 1 -7 5 -25 2 -7 4 -19 5 -27 2 -12 2 -14 1 -16 -1
-2 -1 -5 0 -12 1 -10 3 -25 4 -42 1 -6 1 -15 2 -19 2 -16 3 -77 2 -84 -1 -3
-1 -11 -1 -19 -1 -8 -1 -19 -2 -24 -1 -9 -2 -15 -5 -32 0 -3 -2 -11 -4 -17 -5
-17 -5 -21 -1 -19 3 1 8 15 10 27 1 4 2 9 3 12 1 4 2 19 4 41 2 29 3 42 2 54
0 7 -1 21 -1 32 -1 11 -1 21 -1 21 -1 1 -2 9 -5 39 0 8 -1 18 -2 23 -1 7 -1 8
0 9 2 1 -3 36 -7 49 -1 3 -3 8 -3 11 -1 9 -3 15 -5 19 l-2 4 1 -5z"/>
<path d="M1335 700 c-1 -2 0 -6 1 -9 0 -4 2 -8 2 -11 1 -2 2 -5 2 -7 1 -1 3
-7 4 -11 1 -5 3 -11 4 -14 1 -2 2 -6 3 -8 0 -2 1 -5 2 -7 2 -5 1 -6 -1 -5 -2
0 -2 0 -2 -7 1 -3 2 -12 3 -18 4 -17 6 -44 7 -71 1 -8 1 -17 2 -21 1 -9 1 -36
-1 -46 -4 -18 -5 -27 -4 -28 1 -1 1 -1 2 0 2 2 5 12 6 23 1 6 3 14 3 17 1 6 0
30 -3 63 0 11 -2 25 -2 31 -1 12 -2 21 -6 37 -2 9 -2 11 0 11 4 0 3 8 -2 21
-2 5 -5 13 -6 19 -2 5 -5 15 -7 22 -2 6 -4 13 -4 15 0 7 -2 9 -3 4z"/>
<path d="M1297 683 c0 -3 1 -7 2 -11 2 -9 3 -17 4 -30 0 -7 1 -13 2 -14 1 -2
1 -7 1 -11 0 -5 0 -10 1 -12 0 -2 1 -6 1 -10 0 -3 1 -8 1 -10 1 -5 0 -8 -2 -8
-2 0 -2 0 -2 -9 1 -6 1 -12 2 -14 1 -3 1 -18 1 -33 0 -32 -1 -42 -6 -58 -2 -5
-3 -10 -3 -12 0 -5 7 -2 10 5 0 2 2 8 3 14 2 9 2 13 2 33 -1 17 -1 24 -3 28 0
4 -1 7 -1 8 1 1 0 6 0 10 -1 5 -1 9 0 9 1 2 3 -2 3 -6 1 -4 2 -6 2 -4 0 5 0
21 -1 29 -1 5 -2 17 -2 27 -1 10 -2 19 -3 21 0 2 -1 10 -2 18 -1 13 -2 17 -5
30 -1 2 -1 5 -1 6 0 2 -1 4 -2 5 l-2 3 0 -4z"/>
<path d="M1231 661 c1 -3 1 -7 2 -8 1 -3 2 3 1 9 -2 7 -3 7 -3 -1z"/>
<path d="M1234 640 c0 -3 0 -6 1 -7 1 -1 1 1 1 5 0 4 0 7 -1 8 -1 0 -1 -2 -1
-6z"/>
<path d="M1385 639 c0 -1 1 -6 2 -10 0 -5 1 -11 2 -14 0 -3 1 -7 2 -8 0 -2 2
-8 2 -14 1 -7 3 -15 3 -19 3 -14 4 -21 6 -31 2 -18 5 -36 6 -44 1 -4 2 -11 2
-14 1 -4 2 -10 2 -12 2 -13 3 -28 1 -38 -1 -12 -1 -12 0 -12 3 0 4 3 6 13 1 8
1 11 0 18 0 4 -1 13 -2 19 -1 6 -2 14 -2 16 -1 2 -2 8 -2 13 -1 9 -7 42 -8 46
-1 2 -3 15 -4 22 0 2 -1 7 -2 11 -1 4 -2 12 -3 16 -1 5 -2 11 -3 14 -1 4 -2 8
-2 9 1 1 0 4 -1 6 0 1 -1 5 -1 6 0 4 -2 9 -3 9 -1 0 -1 -1 -1 -2z"/>
<path d="M1235 609 c1 -12 1 -26 1 -32 0 -9 1 -12 2 -8 1 1 1 8 1 16 0 8 0 18
0 22 -1 10 -2 23 -3 24 -1 0 -1 -7 -1 -22z"/>
<path d="M1434 615 c1 -6 4 -19 8 -33 2 -7 5 -17 6 -21 1 -5 2 -12 4 -15 1 -4
2 -8 2 -10 0 -4 2 -13 4 -17 0 -2 2 -8 3 -13 0 -6 1 -11 2 -12 1 -3 3 -15 6
-30 2 -11 2 -26 1 -35 -1 -5 0 -7 2 -4 2 4 4 21 3 26 -1 2 -2 9 -2 15 -1 6 -2
14 -3 18 -1 4 -3 9 -3 12 -1 7 -10 47 -11 49 0 1 -1 5 -2 9 -1 3 -3 12 -5 20
-2 7 -5 16 -6 21 -3 12 -7 23 -9 23 -1 0 -1 -1 0 -3z"/>
<path d="M1304 584 c0 -2 0 -4 1 -5 1 0 1 1 0 4 0 6 -1 6 -1 1z"/>
<path d="M1486 585 c0 -3 3 -15 5 -19 1 -1 2 -5 3 -9 1 -4 3 -11 5 -16 1 -5 3
-12 4 -15 4 -16 8 -35 9 -42 1 -4 3 -11 4 -14 3 -10 3 -19 2 -28 -1 -5 -1 -8
-1 -9 1 -1 5 3 6 6 1 3 -1 22 -3 34 -6 21 -8 32 -8 34 0 3 -4 19 -5 21 0 0 -1
4 -2 8 -2 7 -8 24 -12 37 -2 5 -4 10 -4 12 -1 4 -3 4 -3 0z"/>
<path d="M1236 556 c-1 -9 0 -13 1 -9 1 2 1 18 0 18 0 1 -1 -3 -1 -9z"/>
<path d="M1543 562 c0 -1 2 -6 4 -10 5 -13 8 -22 8 -25 0 -3 3 -12 9 -24 2 -5
4 -11 5 -14 1 -2 3 -7 4 -9 2 -5 3 -9 6 -25 1 -3 2 -8 3 -11 1 -4 1 -6 0 -10
-1 -4 -1 -6 2 -6 3 0 5 9 3 17 -3 15 -5 24 -8 33 -3 9 -6 17 -8 22 -2 2 -3 6
-4 9 0 2 -2 7 -3 11 -2 4 -4 9 -5 11 -10 27 -12 31 -14 32 0 0 -1 -1 -2 -1z"/>
<path d="M1598 524 c-1 -2 0 -4 2 -14 2 -7 5 -15 6 -18 1 -3 2 -5 1 -7 -1 -4
0 -6 2 -7 1 0 2 -1 3 -2 2 -3 7 -20 10 -32 2 -7 4 -13 5 -14 2 -2 2 -5 1 -10
-1 -3 -1 -4 0 -5 2 -2 5 2 5 6 0 4 -2 10 -3 12 -1 0 -2 3 -3 7 -2 10 -8 30
-11 37 -1 2 -2 5 -2 9 0 3 -1 7 -2 9 -3 6 -7 15 -9 22 -2 8 -3 9 -5 7z"/>
<path d="M1654 471 c-1 -1 0 -5 4 -12 8 -18 11 -24 12 -28 0 -3 2 -7 2 -9 2
-4 3 -15 1 -15 -2 -1 -1 -5 0 -5 3 0 6 5 6 8 0 1 -1 8 -3 15 -2 10 -7 23 -12
31 -1 1 -3 5 -4 7 -3 6 -6 10 -6 8z"/>
<path d="M1704 438 c2 -4 5 -10 7 -15 6 -13 7 -16 7 -20 0 -4 1 -6 3 -4 2 2 0
13 -6 25 -5 10 -11 20 -12 20 -1 0 0 -3 1 -6z"/>
<path d="M1744 435 c-1 -1 1 -6 7 -15 2 -4 7 -12 10 -17 2 -5 5 -9 5 -9 3 0 2
4 -2 10 -2 3 -4 9 -6 12 -2 4 -13 20 -13 20 -1 0 -1 0 -1 -1z"/>
<path d="M1587 424 c-1 0 -1 -3 -1 -6 0 -4 0 -5 1 -5 2 0 3 2 3 6 0 3 -2 7 -3
5z"/>
<path d="M1783 410 c0 -1 1 -3 2 -6 1 -2 5 -8 7 -13 3 -6 6 -10 7 -10 1 -1 1
4 -2 9 -7 14 -9 18 -11 19 -2 2 -3 3 -3 1z"/>
<path d="M1826 398 c-1 0 1 -4 2 -7 2 -4 5 -9 6 -13 1 -4 3 -6 4 -6 1 0 1 1 1
4 -1 7 -12 25 -13 22z"/>
<path d="M977 1142 c-1 0 0 -4 1 -8 3 -14 3 -21 5 -56 1 -16 1 -24 0 -25 -1
-1 -1 -3 0 -4 2 -3 2 -116 0 -130 -1 -6 -1 -12 -2 -15 -3 -37 -4 -49 -6 -56 0
-4 -1 -10 -2 -14 0 -7 -1 -16 -4 -32 -1 -11 -1 -10 -7 -40 -6 -30 -5 -29 -8
-33 -1 -2 -1 -4 0 -7 1 -6 3 -5 5 3 3 10 10 40 13 58 2 9 3 17 4 18 0 1 1 6 1
10 1 3 2 10 2 15 4 19 7 47 10 78 5 46 5 104 2 175 -2 34 -5 54 -10 61 -2 3
-3 4 -4 2z"/>
<path d="M946 1130 c-2 -4 0 -49 3 -70 1 -5 1 -21 1 -36 0 -20 0 -27 1 -27 2
1 3 7 4 31 0 21 0 31 -3 59 -1 4 -1 16 -1 25 -1 9 -1 17 -2 18 0 3 -3 2 -3 0z"/>
<path d="M902 1062 c-1 -3 -2 -7 -2 -10 -1 -9 -3 -17 -4 -26 -2 -7 -3 -16 -7
-40 0 -4 -2 -11 -3 -15 -1 -5 -2 -13 -3 -17 -1 -4 -2 -10 -2 -12 -1 -7 0 -9 2
-3 1 3 2 6 2 8 1 2 2 9 4 17 1 7 2 14 3 16 1 1 1 4 1 5 0 4 2 17 4 25 1 3 2
10 3 15 2 15 5 35 6 37 1 1 0 4 -2 4 0 0 -1 -2 -2 -4z"/>
<path d="M960 951 c0 -2 -2 -12 -4 -24 -5 -34 -6 -38 -8 -44 0 -4 -2 -9 -2
-12 0 -3 -1 -7 -2 -8 0 -1 -1 -6 -1 -9 -1 -4 -2 -12 -3 -17 -1 -5 -3 -16 -5
-24 -1 -8 -4 -23 -6 -33 -2 -10 -3 -18 -3 -19 1 -1 5 4 5 6 0 1 1 5 2 8 1 3 2
9 3 14 1 5 2 9 2 10 1 1 1 4 2 5 0 2 1 8 2 14 2 12 5 30 8 48 1 9 2 12 3 14 2
2 3 5 4 19 1 8 3 19 4 23 0 5 1 12 1 16 0 5 0 9 1 11 1 2 0 4 -1 4 -1 0 -1 -1
-2 -2z"/>
<path d="M1018 923 c0 -2 1 -12 3 -19 0 -2 0 -5 0 -6 1 -2 1 -4 2 -5 0 -1 0
-4 0 -6 0 -1 1 -6 1 -11 1 -4 2 -10 3 -13 0 -5 2 -8 4 -6 1 1 -1 17 -4 32 -1
5 -3 12 -3 16 -2 10 -5 20 -5 21 -1 0 -1 -1 -1 -3z"/>
<path d="M1009 883 c-1 -1 -3 -13 -4 -26 -5 -46 -5 -45 -2 -45 2 0 3 1 4 20 2
24 3 39 4 44 1 5 1 8 -1 8 -1 0 -1 0 -1 -1z"/>
<path d="M759 941 c-1 -3 -4 -12 -6 -21 -2 -9 -5 -19 -5 -22 -1 -4 -3 -9 -3
-11 0 -2 -1 -5 -2 -6 0 -3 0 -3 1 -3 1 0 2 4 3 8 1 4 2 9 3 11 1 2 3 5 3 8 0
2 1 6 2 8 1 3 7 23 8 28 1 3 0 6 -1 6 0 0 -2 -3 -3 -6z"/>
<path d="M785 885 c0 -7 0 -13 0 -14 -1 0 -2 -6 -2 -13 -1 -7 -3 -17 -5 -22
-1 -5 -2 -11 -2 -12 0 -3 -2 -14 -6 -27 0 -3 -2 -11 -4 -18 -1 -8 -4 -19 -5
-25 -2 -6 -3 -13 -4 -15 -1 -2 -3 -9 -5 -15 -1 -7 -4 -16 -6 -21 -1 -6 -4 -14
-5 -18 -2 -4 -6 -18 -10 -31 -7 -21 -11 -30 -17 -45 -1 -4 -3 -9 -4 -12 0 -4
-2 -7 -2 -7 -1 -2 -6 -15 -10 -27 -2 -6 -6 -16 -8 -23 -6 -14 -6 -17 -4 -18 0
0 2 2 3 5 1 2 3 6 3 7 1 1 2 5 3 7 1 2 3 8 5 13 2 4 4 11 5 15 2 3 4 9 5 12 2
4 3 7 3 8 0 1 1 3 1 5 1 1 3 6 4 10 1 3 3 7 3 8 1 0 3 6 5 13 3 7 6 17 8 22 2
5 6 14 8 21 2 6 4 13 6 16 1 3 3 9 4 14 2 8 5 16 9 29 4 12 8 27 9 32 0 2 2 9
4 16 2 7 3 15 4 19 1 3 2 9 3 13 1 4 2 11 3 15 1 4 2 11 3 16 3 12 5 34 5 44
0 10 -2 16 -5 16 -2 0 -2 -1 -2 -13z"/>
<path d="M708 852 c-1 0 -1 -3 -1 -6 0 -2 0 -6 -1 -8 -1 -1 -2 -5 -2 -9 -1 -6
-7 -28 -12 -44 -2 -6 -4 -13 -5 -17 -1 -4 -4 -11 -5 -16 -2 -6 -4 -12 -5 -14
0 -1 -3 -8 -5 -15 -18 -54 -21 -63 -22 -64 -1 -1 -1 -2 -1 -3 0 -1 -1 -3 -2
-5 -1 -3 -2 -5 -2 -6 0 -3 -5 -17 -11 -30 -1 -2 -2 -5 -2 -6 0 -2 -1 -5 -2 -8
-2 -2 -3 -6 -4 -8 0 -2 -3 -10 -6 -18 -4 -9 -7 -18 -8 -20 -1 -3 -4 -12 -7
-19 -3 -8 -5 -15 -5 -16 1 -2 4 -1 5 1 0 3 11 32 15 40 1 3 2 5 2 6 0 1 8 21
13 32 2 3 3 8 3 9 0 2 1 5 2 7 1 2 3 6 4 10 2 4 4 11 6 16 2 4 5 13 7 18 1 4
4 12 6 17 5 13 13 36 14 40 4 14 8 27 10 30 1 2 3 7 4 12 1 4 3 11 4 16 11 39
13 47 15 64 1 13 1 17 -2 14z"/>
<path d="M811 823 c-2 -4 -7 -22 -12 -44 -1 -5 -3 -11 -4 -14 0 -3 -2 -8 -3
-11 0 -4 -2 -10 -3 -14 -1 -4 -4 -15 -6 -24 -2 -10 -5 -20 -6 -23 -1 -3 -2 -7
-3 -9 -1 -4 -8 -27 -14 -48 -2 -5 -3 -11 -4 -12 0 -2 -1 -5 -2 -6 -1 -2 -2 -5
-2 -6 -1 -2 -1 -4 -2 -5 0 -1 0 -2 1 -2 2 0 6 10 6 14 0 1 1 3 2 4 0 1 1 2 1
3 0 0 1 4 3 7 2 4 4 9 5 12 2 8 7 24 8 27 0 1 2 8 4 15 2 7 4 14 5 17 0 2 1 6
2 10 2 8 6 25 8 33 1 4 3 10 4 14 0 4 2 10 3 14 1 4 4 14 6 23 2 8 5 18 6 21
1 5 1 6 0 7 -1 1 -1 0 -3 -3z"/>
<path d="M740 815 c-1 -3 -9 -28 -10 -36 -1 -5 -5 -20 -9 -34 -8 -29 -9 -32
-8 -33 0 0 0 1 1 3 1 1 2 3 3 4 2 2 6 12 8 24 1 4 3 11 5 16 2 9 5 19 6 28 1
3 2 7 2 9 2 4 5 16 5 19 0 2 -2 3 -3 0z"/>
<path d="M618 807 c-1 -1 -4 -17 -4 -21 0 -2 0 -6 -1 -8 0 -3 -2 -9 -3 -14 -1
-5 -3 -12 -3 -15 -1 -3 -2 -8 -3 -10 -1 -7 -5 -21 -8 -30 -2 -8 -4 -12 -6 -22
-4 -14 -9 -29 -11 -32 0 -2 -2 -7 -3 -11 -4 -13 -10 -28 -12 -33 -1 -2 -4 -9
-6 -15 -2 -6 -5 -12 -6 -14 -1 -3 -4 -9 -6 -14 -2 -6 -5 -11 -6 -12 0 -2 -3
-7 -5 -13 -2 -6 -5 -12 -6 -13 -2 -2 -2 -3 -1 -4 1 -1 4 1 4 4 0 1 1 3 3 6 1
2 3 6 4 7 0 1 2 4 3 7 2 3 3 5 3 6 0 1 2 6 5 11 3 6 6 13 7 16 1 2 4 11 7 18
4 7 7 15 8 18 12 32 22 63 37 120 6 22 12 64 10 68 0 1 -1 1 -1 0z"/>
<path d="M648 774 c-1 -1 -5 -13 -10 -26 -4 -13 -9 -27 -11 -32 -1 -5 -3 -10
-3 -11 0 -1 -1 -4 -3 -7 -1 -4 -3 -8 -3 -10 -1 -2 -2 -6 -4 -10 -2 -4 -4 -9
-4 -10 -1 -3 -4 -11 -8 -21 -1 -3 0 -6 2 -4 1 0 3 6 5 12 2 6 6 15 7 19 6 13
9 22 17 49 5 13 10 29 12 35 2 6 4 13 5 14 1 4 0 5 -2 2z"/>
<path d="M554 748 c-2 -3 -4 -11 -6 -17 -2 -7 -4 -13 -4 -14 -1 -2 -3 -9 -5
-16 -2 -8 -4 -17 -5 -21 -2 -4 -3 -10 -4 -12 -3 -13 -7 -28 -14 -47 -4 -9 -7
-19 -8 -22 -1 -4 -3 -9 -5 -12 -2 -3 -3 -7 -4 -10 0 -3 -2 -8 -3 -11 -4 -10
-7 -18 -9 -23 -1 -3 -3 -8 -4 -11 -1 -3 -4 -12 -7 -19 -8 -21 -9 -25 -8 -26 1
-2 3 0 4 6 1 2 3 7 4 10 1 2 3 9 5 15 3 5 5 11 6 13 0 1 2 5 3 8 1 3 4 9 5 13
2 4 5 10 6 13 1 3 5 14 9 25 5 11 8 21 8 22 0 0 1 3 2 5 4 8 11 29 13 37 1 4
3 11 4 15 5 17 7 26 9 33 1 4 3 10 3 12 3 7 5 14 7 24 1 4 2 9 3 11 1 1 1 3 1
4 -2 4 -4 2 -6 -5z"/>
<path d="M516 746 c-1 -2 -2 -8 -4 -15 0 -3 -2 -9 -4 -15 -1 -6 -3 -12 -4 -14
0 -2 -2 -8 -4 -13 -2 -5 -5 -12 -7 -16 -4 -10 -9 -19 -11 -20 -2 0 -3 -2 -1
-5 1 -1 1 -3 -2 -8 -1 -4 -4 -9 -5 -12 0 -3 -2 -7 -3 -8 0 -1 -3 -8 -6 -14 -2
-7 -7 -19 -9 -26 -3 -7 -7 -18 -9 -22 -2 -5 -4 -12 -6 -15 -3 -9 -9 -27 -14
-42 -3 -8 -6 -15 -9 -19 -5 -8 -14 -25 -14 -28 0 -5 5 -2 9 7 2 3 4 6 4 7 1 1
2 4 3 6 1 2 3 5 3 6 1 1 3 6 5 11 2 4 5 14 8 22 2 7 5 14 6 17 0 2 3 9 5 16 3
6 6 14 7 18 4 11 8 19 10 21 0 1 1 3 1 4 0 3 10 30 15 40 3 6 5 10 10 26 2 5
4 10 4 12 2 3 10 22 11 27 0 2 1 5 2 7 3 5 4 10 8 27 4 14 4 19 3 19 0 1 -1 0
-2 -1z"/>
<path d="M920 706 c-1 0 -1 -2 -1 -3 0 -1 -1 -3 -1 -4 -4 -8 -7 -25 -5 -25 2
0 6 15 8 30 1 4 0 5 -1 2z"/>
<path d="M708 700 c-2 -3 -3 -10 -1 -10 0 1 1 2 1 3 0 2 1 4 1 6 1 4 1 5 -1 1z"/>
<path d="M826 654 c-1 -2 -3 -7 -5 -11 -6 -13 -12 -29 -13 -31 0 -2 0 -2 1 -2
2 0 5 6 8 16 1 2 4 9 7 15 5 10 7 17 4 18 0 0 -1 -2 -2 -5z"/>
<path d="M445 654 c-1 -1 -2 -2 -2 -4 0 -2 -1 -5 -2 -7 -1 -3 -2 -6 -3 -8 -1
-3 -2 -6 -3 -7 0 -2 -2 -7 -3 -11 -1 -4 -4 -12 -6 -17 -2 -5 -5 -12 -6 -16 -3
-11 -17 -49 -26 -68 -2 -6 -3 -12 -1 -12 0 0 2 2 3 5 4 9 6 13 11 24 3 6 5 11
5 12 0 0 1 3 3 7 5 10 6 12 7 19 3 7 6 16 14 41 2 5 5 13 7 17 4 11 6 16 7 19
1 2 1 6 -1 6 -1 1 -3 0 -4 0z"/>
<path d="M599 636 c-1 -3 -6 -14 -6 -15 0 0 0 0 1 0 1 1 4 7 6 13 2 4 1 6 -1
2z"/>
<path d="M783 635 c-1 0 -1 -1 -1 -2 0 -2 0 -2 2 -1 0 1 1 2 1 3 0 1 -1 1 -2
0z"/>
<path d="M603 627 c-1 -1 -2 -4 -3 -6 -2 -5 -8 -21 -10 -26 -6 -14 -16 -35
-18 -38 -1 -2 -2 -5 -3 -6 0 -2 -1 -3 -2 -4 0 -1 -1 -2 -1 -2 0 -1 -2 -6 -5
-12 -3 -5 -5 -11 -5 -11 0 -1 -1 -3 -2 -4 -1 -2 -2 -4 -2 -5 0 -4 2 -1 5 4 1
3 2 5 3 6 1 2 17 32 21 43 2 4 6 11 7 15 4 9 11 25 11 26 0 1 1 5 3 9 2 4 3 9
3 10 l0 4 -2 -3z"/>
<path d="M684 626 c-1 0 -3 -7 -6 -15 -4 -8 -9 -21 -13 -29 -8 -20 -7 -18 -11
-26 -1 -4 -4 -10 -5 -13 -2 -4 -3 -8 -3 -8 1 -1 7 8 7 10 0 0 2 6 5 12 5 9 9
18 16 35 9 19 12 27 12 32 0 3 -1 4 -2 2z"/>
<path d="M365 623 c-1 -2 -2 -8 -4 -12 -4 -19 -11 -41 -17 -54 -1 -4 -4 -11
-6 -17 -6 -18 -12 -34 -15 -42 -5 -12 -7 -21 -7 -22 2 -1 5 4 10 17 9 24 10
26 10 27 0 0 2 4 3 8 2 4 5 10 6 14 4 13 10 28 12 29 0 1 1 4 2 7 2 9 6 26 11
38 1 4 2 8 1 9 -1 2 -4 1 -6 -2z"/>
<path d="M768 578 c-1 0 -3 -7 -6 -16 -7 -22 -11 -31 -18 -46 -6 -12 -8 -17
-5 -16 1 1 11 19 15 28 2 5 6 14 8 20 2 6 4 13 5 15 2 5 5 13 5 15 0 1 -4 1
-4 0z"/>
<path d="M516 525 c-1 -2 -2 -5 -4 -18 0 -3 0 -5 1 -5 2 -2 1 -5 -5 -15 -8
-11 -8 -14 -1 -8 6 5 8 8 12 16 2 6 2 7 1 9 -1 1 -1 3 2 8 5 10 7 15 2 8 -3
-6 -5 -5 -5 1 0 5 -1 7 -3 4z"/>
<path d="M667 508 c-8 -17 -10 -20 -17 -31 -3 -5 -5 -9 -5 -9 1 -2 1 -2 3 0 2
0 3 2 3 2 0 0 1 2 2 3 3 2 8 11 18 31 4 9 6 17 3 18 0 0 -4 -6 -7 -14z"/>
<path d="M600 504 c-1 -1 -2 -4 -3 -5 -1 -2 -2 -4 -2 -5 0 -1 -2 -6 -5 -12 -5
-10 -6 -15 -4 -14 2 1 19 35 19 38 0 2 -3 1 -5 -2z"/>
<path d="M293 501 c0 -1 -2 -4 -4 -8 -2 -4 -4 -7 -5 -8 -3 -3 -3 -6 0 -6 1 0
3 1 5 7 5 8 7 16 6 16 0 0 -1 -1 -2 -1z"/>
<path d="M463 478 c-6 -14 -8 -20 -5 -17 2 2 9 18 9 20 0 2 -2 1 -4 -3z"/>
<path d="M234 478 c-1 0 -1 -1 -1 -2 0 -2 -5 -9 -11 -16 -4 -4 -6 -9 -4 -9 2
0 6 4 10 8 8 10 11 15 11 18 -1 2 -4 3 -5 1z"/>
<path d="M350 469 c-4 -7 -7 -13 -7 -14 0 -2 3 -1 5 2 1 1 3 5 5 8 3 5 4 8 1
8 -1 0 -3 -2 -4 -4z"/>
<path d="M186 471 c-2 -3 -10 -17 -10 -18 0 -1 0 -2 1 -3 2 0 6 4 10 12 3 6 4
7 3 9 -2 1 -2 1 -4 0z"/>
<path d="M271 462 c-7 -9 -9 -11 -7 -13 1 -2 18 15 18 18 0 4 -4 2 -11 -5z"/>
<path d="M314 464 c-4 -6 -5 -9 -2 -9 0 0 1 0 1 1 0 0 2 3 4 5 4 5 5 7 2 8 -1
0 -3 -2 -5 -5z"/>
<path d="M214 465 c-3 -2 -3 -3 -2 -4 2 -2 5 2 5 5 0 2 -1 2 -3 -1z"/>
<path d="M1137 219 c-1 -1 -1 -1 0 -4 1 -2 1 -2 4 -2 1 1 4 2 5 3 l3 3 -3 0
c-4 1 -7 1 -9 0z"/>
<path d="M1662 166 c-2 0 -3 -2 -3 -2 1 -2 12 -4 15 -2 2 1 3 4 1 4 -4 2 -10
2 -13 0z"/>
<path d="M308 205 c0 -3 22 -11 41 -14 13 -3 17 -3 22 0 1 0 5 1 9 2 23 3 31
6 25 7 -2 1 -22 -1 -37 -4 -8 -1 -18 -1 -26 2 -3 0 -8 2 -10 2 -3 1 -6 2 -7 2
-1 1 -15 4 -17 4 0 0 0 0 0 -1z"/>
<path d="M227 189 c-6 -1 -18 -3 -27 -4 -9 0 -20 -1 -24 -2 -5 0 -9 0 -11 0
-2 1 -4 1 -7 0 -3 0 -8 -1 -14 0 -6 0 -9 0 -9 -1 0 -2 3 -2 29 -2 32 1 50 2
66 7 3 0 7 1 8 1 4 1 4 3 1 3 -1 0 -7 -1 -12 -2z"/>
<path d="M55 186 c1 -1 15 -3 17 -2 1 0 0 1 -4 1 -4 0 -8 1 -10 1 -2 1 -3 1
-3 0z"/>
<path d="M80 184 c0 -1 1 -2 9 -2 6 -1 7 -1 6 0 -1 1 -14 3 -15 2z"/>
<path d="M109 183 c-6 0 -8 -1 -6 -2 1 -2 25 0 25 1 -1 1 -9 2 -19 1z"/>
<path d="M377 180 c-1 0 0 -1 0 -2 2 -1 11 -4 15 -4 2 0 6 -1 9 -1 3 -1 4 -1
5 0 1 1 1 2 0 2 -1 1 -23 6 -26 6 -1 0 -3 0 -3 -1z"/>
<path d="M1840 169 c-7 -1 -20 -1 -29 -1 -17 -1 -27 -2 -28 -4 -3 -3 5 -4 24
-2 5 1 13 1 18 1 25 1 50 2 52 2 7 0 12 3 6 4 -3 1 -23 1 -43 0z"/>
<path d="M267 156 c-3 -1 1 -8 7 -12 6 -3 19 -7 29 -8 16 -2 23 -1 37 2 14 3
21 7 21 10 0 2 -4 2 -16 0 -22 -5 -29 -5 -32 -4 -1 1 -3 1 -3 1 -1 0 -2 0 -3
1 -1 1 -4 1 -7 0 -4 -1 -6 0 -11 1 -4 1 -8 3 -8 3 -4 2 -13 7 -14 6z"/>
<path d="M236 144 c-3 -1 -8 -1 -12 -2 -4 -1 -16 -3 -25 -6 -24 -6 -35 -7 -57
-7 -12 0 -18 0 -18 -1 0 -1 3 -2 18 -3 22 -2 35 0 83 12 5 2 11 3 13 4 3 0 5
1 5 2 0 2 -1 2 -7 1z"/>
<path d="M1088 142 c-4 -1 -7 -2 -8 -2 0 1 -2 0 -4 0 -11 -3 -15 -4 -23 -4 -5
0 -10 0 -11 1 -2 1 -6 2 -8 2 -2 0 -5 1 -6 1 -1 1 -2 1 -2 0 0 -3 2 -4 11 -7
17 -5 15 -5 25 -3 8 1 21 4 32 9 4 1 5 1 6 -1 1 -1 2 -3 3 -3 1 -2 9 -8 10 -8
1 0 3 -1 4 -1 1 -1 6 -3 10 -4 9 -3 17 -2 27 1 3 1 8 3 12 3 11 2 15 3 18 5 2
2 2 3 1 4 -1 1 -3 1 -8 -1 -10 -3 -19 -5 -23 -5 -3 0 -7 -1 -9 -1 -5 -2 -12
-2 -12 -1 -1 1 -3 1 -4 1 -2 0 -4 1 -6 1 -1 1 -3 2 -4 2 -3 0 -5 1 -8 5 -3 3
-6 6 -7 7 -2 3 -9 2 -16 -1z"/>
<path d="M600 133 c-1 -2 1 -6 5 -8 5 -3 17 -6 26 -6 7 -1 21 0 26 2 7 3 12 4
14 4 2 -1 5 -3 8 -5 3 -3 7 -5 9 -7 3 -2 16 -9 18 -9 0 0 3 -1 7 -3 11 -4 38
-6 43 -2 3 2 3 3 -2 3 -7 0 -27 3 -31 5 -2 1 -5 2 -6 2 -2 0 -21 9 -26 13 -13
10 -11 9 -19 9 -7 0 -20 -1 -22 -3 -2 -1 -14 -2 -21 -2 -8 0 -14 2 -20 6 -4 2
-7 3 -9 1z"/>
<path d="M876 129 c-2 -2 -8 -5 -13 -5 -2 -1 -8 -3 -12 -4 -7 -3 -10 -3 -20
-4 -8 0 -12 0 -19 -3 -16 -5 -40 -3 -63 5 -3 1 -6 2 -7 2 -2 0 0 -3 3 -4 2 -1
6 -3 10 -4 4 -2 9 -3 12 -3 3 -1 8 -2 12 -3 9 -2 26 -2 37 1 9 3 20 5 21 5 2
-1 6 -10 6 -12 -1 -2 1 -4 3 -4 2 0 11 -4 20 -9 3 -2 8 -4 11 -5 2 -1 7 -3 9
-3 3 -2 9 -2 18 -3 14 0 17 0 33 4 8 1 12 2 25 2 5 1 13 2 19 3 6 1 13 2 16 2
2 1 6 2 7 2 1 1 8 2 14 3 13 2 16 3 13 5 -2 1 -8 0 -18 -2 -4 -1 -10 -2 -12
-2 -3 -1 -11 -2 -17 -3 -17 -3 -33 -4 -39 -2 -5 2 -6 1 -6 -2 0 -2 -4 -3 -13
-4 -10 0 -10 0 -2 6 8 7 12 8 18 7 3 -1 8 -1 12 -1 12 1 27 3 33 5 3 0 7 1 9
1 1 0 6 0 11 0 8 0 12 1 10 4 0 2 -6 3 -18 1 -5 -1 -12 -2 -16 -2 -3 0 -10 -1
-14 -1 -12 -2 -19 -2 -27 0 -6 2 -8 2 -10 1 -3 -1 -4 0 -11 2 -9 3 -36 19 -36
21 0 4 -7 6 -9 3z m2 -6 c1 0 -5 -5 -12 -10 -11 -7 -14 -8 -16 -7 -1 0 -3 2
-4 3 -1 3 -1 3 0 4 1 1 5 2 7 3 3 1 10 3 15 5 5 2 10 3 10 3 0 0 0 0 0 -1z m9
-7 c1 -3 1 -3 0 -5 -1 -1 -4 -3 -6 -3 -5 -2 -16 -8 -17 -11 0 -2 -3 -1 -6 1
-5 4 -4 5 4 9 4 2 10 6 13 8 6 5 10 5 12 1z m12 -9 c2 -1 4 -3 4 -4 0 -1 -3
-4 -7 -7 -8 -6 -9 -7 -8 -10 0 -3 -3 -3 -8 0 -4 3 -9 8 -9 10 0 1 8 7 9 7 1 0
3 1 6 3 5 4 8 4 13 1z m21 -8 c3 -2 4 -4 0 -6 -3 -1 -7 -5 -9 -9 -1 -3 -1 -3
-6 -3 -3 1 -7 1 -9 2 -4 0 -4 1 -2 2 1 1 4 3 6 4 3 2 5 3 5 5 0 2 1 4 3 5 3 2
5 2 12 0z"/>
<path d="M494 125 c-1 -3 3 -9 11 -15 7 -6 18 -13 21 -13 1 0 3 -1 6 -2 2 -1
4 -2 5 -2 1 0 4 -1 8 -2 5 -3 26 -8 29 -8 1 0 6 -2 11 -4 13 -6 22 -8 39 -9
18 -2 33 -1 40 3 2 2 6 3 9 4 3 1 8 2 11 3 3 1 7 2 8 3 1 0 4 1 5 2 l2 2 -3 0
c-3 0 -14 -3 -29 -7 -14 -4 -23 -5 -44 -4 -8 1 -13 1 -15 2 -1 1 -3 2 -4 2 -3
0 -8 2 -10 4 -2 1 -4 2 -5 2 -1 1 -7 2 -12 3 -5 2 -12 3 -14 4 -4 1 -9 3 -17
7 -2 0 -4 1 -5 1 -7 0 -30 12 -35 19 -2 3 -8 6 -10 6 -1 0 -1 -1 -2 -1z"/>
<path d="M1404 125 c2 -2 14 -5 21 -5 12 0 21 0 29 1 13 1 9 2 -9 3 -16 0 -19
0 -34 2 -5 0 -7 0 -7 -1z"/>
<path d="M480 123 c-2 -1 -5 -2 -7 -2 -1 -1 -4 -2 -6 -2 -2 -1 -7 -2 -10 -4
-3 -1 -7 -2 -9 -2 -1 0 -3 -1 -5 -1 -1 -1 -3 -2 -5 -2 -3 -1 -10 -2 -16 -4
-14 -3 -31 -7 -38 -8 -2 0 -5 -1 -6 -1 -2 -2 -16 -3 -24 -2 -6 0 -8 0 -10 -1
-3 -2 -33 -1 -43 2 -5 1 -9 2 -10 2 -2 0 -5 1 -8 2 -3 1 -7 2 -9 2 -5 0 -3 -2
4 -4 4 -1 8 -2 10 -3 2 -1 20 -4 28 -5 5 -1 32 -1 45 -1 6 1 17 2 23 4 11 2
15 3 27 5 9 1 32 7 35 9 0 0 3 1 5 1 2 1 6 2 7 3 2 1 7 3 12 4 10 2 18 5 19 7
0 2 -3 2 -9 1z"/>
<path d="M1244 122 c-10 -5 -50 -15 -69 -17 -5 -1 -10 -1 -11 -2 -1 0 -12 0
-23 -1 -11 0 -21 -1 -22 -2 -1 0 -2 -1 -2 -2 0 -2 2 -3 9 -3 2 0 9 0 14 0 12
0 30 2 33 4 0 0 3 1 7 1 14 2 30 5 39 9 3 1 8 3 12 3 3 1 7 1 8 2 4 0 5 -2 1
-3 -10 -3 -25 -8 -28 -8 -1 0 -4 -1 -7 -2 -2 -1 -7 -2 -12 -3 -4 -1 -9 -2 -11
-2 -3 -1 -7 -1 -10 -2 -3 0 -9 0 -13 -1 -4 0 -10 -1 -13 -1 -4 -1 -7 -1 -15 0
-5 0 -10 1 -10 0 -1 -1 2 -2 8 -3 9 -1 16 -1 26 0 4 1 9 2 12 2 2 0 5 0 6 1 2
0 7 1 11 2 13 2 36 7 60 15 4 1 7 0 7 -3 0 -2 -4 -6 -7 -6 -1 0 -5 -1 -9 -3
-9 -3 -21 -6 -23 -5 -1 0 -6 -1 -11 -3 -9 -3 -32 -7 -37 -5 -5 1 -10 0 -13 -1
l-2 -2 2 -1 c2 -1 4 -1 5 -1 1 0 5 -1 8 -2 6 -3 16 -5 20 -5 1 0 8 -1 16 -2 9
-1 19 -1 39 -1 35 0 57 1 60 2 2 0 7 1 13 1 5 0 12 0 16 0 4 1 11 1 17 2 5 0
10 1 11 2 2 1 13 2 20 2 6 0 8 0 13 -3 5 -3 6 -3 16 -4 6 0 13 0 16 -1 5 -1
25 -3 38 -4 19 -1 40 4 51 11 12 8 17 16 12 18 -1 0 -4 0 -6 -1 -15 -5 -40 -7
-58 -5 -18 2 -23 2 -24 0 -1 -4 25 -8 48 -7 10 1 14 1 14 0 0 -2 -7 -4 -20 -6
-12 -1 -19 -1 -36 1 -4 0 -15 2 -24 3 -13 1 -17 2 -20 4 -2 1 -7 3 -12 4 -7 2
-9 2 -12 1 -7 -2 -42 -7 -53 -7 -3 0 -12 -1 -20 -1 -16 -2 -59 -4 -70 -4 -9 0
-13 1 -13 2 0 1 5 3 11 5 12 5 15 6 24 14 6 6 9 6 15 3 7 -3 26 -7 38 -7 7 0
9 0 12 2 7 5 5 7 -12 9 -17 3 -36 7 -42 11 -2 1 -6 4 -8 5 -3 3 -6 4 -10 1z
m-16 -32 c-1 0 -3 -2 -6 -3 -2 0 -5 -2 -6 -2 -1 -1 -3 -1 -4 -1 -1 0 -4 -1 -7
-2 -6 -2 -12 -3 -12 -1 -1 2 5 4 16 6 6 1 12 2 13 3 3 1 6 1 6 0z"/>
<path d="M1540 110 c0 -2 5 -7 6 -6 0 1 -1 2 -3 4 -2 1 -3 2 -3 2z"/>
<path d="M1912 93 c-7 -1 -15 -1 -19 -2 -5 0 -14 -1 -21 -1 -8 0 -17 -1 -21
-2 -4 0 -12 -1 -17 -1 -6 0 -14 -1 -18 -2 -4 0 -13 -1 -20 -1 -7 -1 -14 -1
-15 -2 -3 -1 -6 -1 -31 -1 l-18 1 -7 3 c-4 2 -8 5 -8 5 -2 2 -4 1 -4 -1 0 -4
9 -8 28 -13 2 -1 7 -1 12 -1 5 1 10 1 12 1 2 0 6 0 9 1 2 1 6 1 9 1 2 1 8 1
13 2 4 1 12 1 16 1 4 0 9 0 11 1 1 1 7 1 12 1 4 1 11 1 15 2 3 1 8 1 10 0 2 0
11 1 21 1 9 1 23 2 31 3 8 0 15 1 16 1 2 1 2 1 -2 3 -2 0 -3 1 -3 1 0 0 -5 -1
-11 -1z"/>
<path d="M489 83 c-2 0 -5 -1 -6 -2 -2 -2 -14 -5 -17 -5 -2 0 -3 0 -3 -1 -1 0
-4 -1 -6 -1 -3 -1 -7 -1 -9 -2 -2 0 -7 0 -10 1 -6 1 -9 1 -7 -2 1 -1 4 -2 21
-4 9 -1 10 -1 15 1 3 1 6 2 8 2 1 0 2 1 3 1 1 2 8 4 14 6 3 0 3 0 7 -4 4 -5
26 -16 36 -19 5 -1 12 -1 27 -2 l20 0 10 3 c6 1 13 3 15 4 3 1 6 2 6 3 2 1 3
2 -18 -1 -4 -1 -9 -1 -11 -2 -3 -1 -9 -1 -20 -1 -9 1 -17 1 -18 1 -5 0 -13 2
-17 5 -2 1 -5 2 -6 2 -3 0 -14 7 -19 12 -6 5 -8 6 -15 5z"/>
<path d="M1578 78 c0 -3 6 -6 13 -8 2 -1 8 -2 13 -4 8 -3 9 -3 20 -3 6 0 12 0
13 0 1 1 7 1 12 2 4 0 9 0 11 0 2 0 6 2 6 4 0 1 -2 1 -18 0 -16 -1 -35 -1 -39
0 -2 0 -7 2 -11 3 -5 1 -9 3 -10 3 0 1 -2 1 -4 2 -1 0 -3 1 -4 2 -1 0 -2 0 -2
-1z"/>
<path d="M788 75 c0 -2 21 -12 33 -14 9 -1 13 -1 23 1 10 2 10 2 8 3 0 1 -4 1
-11 0 -8 -1 -11 -1 -20 1 -5 1 -11 2 -12 3 -3 1 -19 7 -20 7 -1 0 -1 0 -1 -1z"/>
<path d="M1585 65 c-3 -3 0 -11 5 -16 4 -3 14 -7 18 -7 1 0 5 -1 8 -2 3 -1 6
-2 8 -2 2 0 10 0 18 -1 7 0 21 0 31 -1 10 0 22 0 27 -1 4 -1 11 -1 14 -2 6 0
16 -2 25 -6 5 -2 7 -3 14 -2 4 1 10 2 14 3 4 0 9 1 13 2 10 1 17 3 20 5 2 3 3
4 0 6 -1 1 -3 1 -12 0 -10 -2 -25 -4 -35 -6 -2 0 -8 1 -16 3 -12 3 -27 4 -64
5 -55 2 -75 7 -81 19 -2 4 -5 5 -7 3z"/>
<path d="M421 56 c-13 -6 -17 -8 -19 -8 0 0 -1 0 -1 -1 0 -1 1 -1 2 0 1 0 3 1
5 1 10 3 24 10 24 12 0 1 -1 1 -11 -4z"/>
<path d="M802 48 c-2 -1 -4 -2 -5 -2 -5 -4 -32 -4 -41 1 -3 2 -7 1 -7 -1 0 -3
4 -6 11 -8 6 -2 9 -2 20 -2 14 1 17 1 28 5 9 2 15 0 24 -6 5 -3 7 -4 10 -4 4
0 11 -4 14 -7 1 -1 4 -2 8 -3 4 -1 10 -1 12 -2 15 -3 26 -3 33 -1 2 1 8 2 12
3 8 1 12 3 11 5 -1 0 -7 0 -14 -1 -8 -1 -17 -1 -22 -1 -16 0 -34 4 -40 9 -1 1
-3 2 -3 2 -1 0 -5 2 -10 4 -5 3 -12 5 -14 6 -2 1 -6 2 -7 3 -3 1 -14 1 -20 0z"/>
<path d="M369 42 c-1 -1 1 -1 4 -1 3 0 5 0 6 1 0 1 -2 1 -5 1 -3 0 -5 0 -5 -1z"/>
<path d="M340 40 c2 -1 6 -1 7 0 0 1 -2 1 -4 1 -3 0 -4 0 -3 -1z"/>
<path d="M1068 38 c0 -5 15 -8 30 -8 6 0 12 0 14 0 2 -1 5 0 9 1 4 1 8 2 10 2
3 1 4 2 4 3 0 3 -2 3 -8 0 -4 -2 -5 -2 -8 -1 -3 1 -7 1 -12 0 -9 -1 -25 0 -31
2 -5 2 -8 2 -8 1z"/>
<path d="M1489 21 c0 -2 4 -4 11 -7 12 -6 16 -7 28 -8 5 -1 11 -2 15 -2 12 -3
15 -3 21 -1 3 1 7 2 10 3 5 1 7 3 7 5 0 3 -1 3 -7 1 -2 0 -6 -1 -8 0 -2 0 -4
0 -5 -1 -2 -2 -2 -2 -23 0 -13 1 -27 4 -31 7 -2 1 -5 2 -7 2 -3 1 -6 1 -8 2
-3 0 -3 0 -3 -1z"/>
<path d="M1343 18 c-2 -2 -1 -4 7 -8 6 -3 9 -4 13 -4 5 0 14 -1 16 -2 0 -1 5
-1 10 -2 8 -1 10 -1 18 1 5 1 10 2 11 2 1 0 3 1 5 2 1 1 5 2 8 3 2 1 8 2 13 3
9 3 10 4 8 5 0 1 -5 0 -13 -2 -7 -2 -15 -4 -18 -4 -4 0 -9 -1 -11 -2 -2 -1 -9
-2 -14 -2 -9 -1 -10 -1 -14 0 -2 2 -4 2 -6 2 -2 -1 -4 0 -8 1 -2 1 -5 2 -6 2
-1 0 -5 1 -9 3 -8 3 -8 3 -10 2z"/>
</g>
</svg>
